<svg width="55" height="56" viewBox="0 0 55 56" fill="none" xmlns="http://www.w3.org/2000/svg">
<g filter="url(#filter0_d)">
<rect x="4" width="47" height="48" rx="13" fill="#F0BB1F"/>
<path d="M17.5446 17.4755C17.248 17.4755 17.0054 17.2328 17 16.9363V13.5446C17 13.2426 17.2426 13 17.5446 13H20.9363C21.2328 13 21.4755 13.2426 21.4755 13.5446V14.7255H34.5245V13.5446C34.5245 13.248 34.7672 13.0054 35.0637 13H38.4554C38.752 13 38.9946 13.2426 39 13.5446V16.9363C39 17.2328 38.7574 17.4755 38.4554 17.4755H37.2745V30.5245H38.4554C38.752 30.5245 38.9946 30.7672 39 31.0637V34.4554C39 34.752 38.7574 34.9946 38.4554 35H35.0637C34.7672 35 34.5245 34.7574 34.5245 34.4554V33.2745H21.4755V34.4554C21.4755 34.752 21.2328 34.9946 20.9363 35H17.5446C17.248 35 17.0054 34.7574 17 34.4554V31.0637C17 30.7672 17.2426 30.5245 17.5446 30.5245H18.7255V17.4755H17.5446ZM37.9216 16.3971V14.0784H35.6029V16.3971H37.9216ZM35.6029 33.9216H37.9216V31.6029H35.6029V33.9216ZM21.4755 31.0637V32.1961H34.5245V31.0637C34.5245 30.7672 34.7672 30.5245 35.0637 30.5245H36.1961V17.4755H35.0637C34.7672 17.4755 34.5245 17.2328 34.5245 16.9363V15.8039H21.4755V16.9363C21.4755 17.2328 21.2328 17.4755 20.9363 17.4755H19.8039V30.5245H20.9363C21.2328 30.5245 21.4755 30.7672 21.4755 31.0637ZM18.0784 31.6029V33.9216H20.3971V31.6029H18.0784ZM20.3971 16.3971V14.0784H18.0784V16.3971H20.3971Z" fill="white"/>
</g>
<defs>
<filter id="filter0_d" x="0" y="0" width="55" height="56" filterUnits="userSpaceOnUse" color-interpolation-filters="sRGB">
<feFlood flood-opacity="0" result="BackgroundImageFix"/>
<feColorMatrix in="SourceAlpha" type="matrix" values="0 0 0 0 0 0 0 0 0 0 0 0 0 0 0 0 0 0 127 0" result="hardAlpha"/>
<feOffset dy="4"/>
<feGaussianBlur stdDeviation="2"/>
<feComposite in2="hardAlpha" operator="out"/>
<feColorMatrix type="matrix" values="0 0 0 0 0 0 0 0 0 0 0 0 0 0 0 0 0 0 0.25 0"/>
<feBlend mode="normal" in2="BackgroundImageFix" result="effect1_dropShadow"/>
<feBlend mode="normal" in="SourceGraphic" in2="effect1_dropShadow" result="shape"/>
</filter>
</defs>
</svg>
