<svg width="167" height="154" viewBox="0 0 167 154" fill="none" xmlns="http://www.w3.org/2000/svg">
<path d="M92.5249 88.9099L92.5249 88.9099L92.5292 88.9071C93.6897 88.1492 94.9618 87.6074 96.2656 87.3148C96.7649 87.214 97.1596 87.4091 97.3332 87.7091L97.3339 87.7104L98.4862 89.6877L98.4865 89.6884C98.6617 89.988 98.6466 90.4446 98.3328 90.8626C97.4855 91.9393 96.4419 92.8728 95.2659 93.6039L95.2659 93.6039L95.2616 93.6066C93.7348 94.5795 92.1962 95.1477 90.9561 95.2954C89.6743 95.4481 88.8918 95.1414 88.5962 94.6341C88.3007 94.1268 88.3986 93.2588 89.116 92.1374C89.81 91.0524 90.9981 89.8828 92.5249 88.9099Z" fill="#D5D6DB"/>
<path d="M92.5249 88.9099L92.5249 88.9099L92.5292 88.9071C93.6897 88.1492 94.9618 87.6074 96.2656 87.3148C96.7649 87.214 97.1596 87.4091 97.3332 87.7091L97.3339 87.7104L98.4862 89.6877L98.4865 89.6884C98.6617 89.988 98.6466 90.4446 98.3328 90.8626C97.4855 91.9393 96.4419 92.8728 95.2659 93.6039L95.2659 93.6039L95.2616 93.6066C93.7348 94.5795 92.1962 95.1477 90.9561 95.2954C89.6743 95.4481 88.8918 95.1414 88.5962 94.6341C88.3007 94.1268 88.3986 93.2588 89.116 92.1374C89.81 91.0524 90.9981 89.8828 92.5249 88.9099Z" stroke="black"/>
<path d="M92.5249 88.9099L92.5249 88.9099L92.5292 88.9071C93.6897 88.1492 94.9618 87.6074 96.2656 87.3148C96.7649 87.214 97.1596 87.4091 97.3332 87.7091L97.3339 87.7104L98.4862 89.6877L98.4865 89.6884C98.6617 89.988 98.6466 90.4446 98.3328 90.8626C97.4855 91.9393 96.4419 92.8728 95.2659 93.6039L95.2659 93.6039L95.2616 93.6066C93.7348 94.5795 92.1962 95.1477 90.9561 95.2954C89.6743 95.4481 88.8918 95.1414 88.5962 94.6341C88.3007 94.1268 88.3986 93.2588 89.116 92.1374C89.81 91.0524 90.9981 89.8828 92.5249 88.9099Z" stroke="black" stroke-opacity="0.2"/>
<path d="M88.2873 59.8541C88.7574 59.758 89.1981 59.9331 89.4103 60.3002L90.2446 61.732C90.4586 62.0981 90.4055 62.5874 90.109 62.9804M88.2873 59.8541L88.3828 60.3208C88.3814 60.3211 88.3799 60.3215 88.3785 60.3218M88.2873 59.8541L88.3748 60.3225C88.376 60.3223 88.3773 60.322 88.3785 60.3218M88.2873 59.8541L85.4687 61.0547C83.1919 62.5055 81.8661 64.5769 82.5087 65.6797C83.1513 66.7825 85.5198 66.5 87.7964 65.0493C88.6823 64.4983 89.4692 63.794 90.109 62.9804M90.109 62.9804L89.7564 62.6774C89.7553 62.6787 89.7543 62.6801 89.7532 62.6814M90.109 62.9804L89.7506 62.6849C89.7515 62.6837 89.7524 62.6825 89.7532 62.6814M89.7532 62.6814C89.9541 62.4128 89.9492 62.1422 89.855 61.981L89.8547 61.9805L89.0204 60.5487L89.0196 60.5473C88.9266 60.3864 88.6992 60.2576 88.3785 60.3218M89.7532 62.6814C89.1483 63.4497 88.4031 64.1167 87.5631 64.6392L87.5631 64.6392L87.5589 64.6418C86.4641 65.3394 85.3657 65.7432 84.4883 65.8479C83.5689 65.9575 83.0719 65.7287 82.8986 65.4313C82.7253 65.1338 82.7587 64.5671 83.2733 63.763C83.7645 62.9956 84.6113 62.1599 85.7062 61.4623L85.7062 61.4623L85.7105 61.4595C86.5396 60.9179 87.4481 60.5309 88.3785 60.3218" fill="#D5D6DB"/>
<path d="M88.2873 59.8541C88.7574 59.758 89.1981 59.9331 89.4103 60.3002L90.2446 61.732C90.4586 62.0981 90.4055 62.5874 90.109 62.9804M88.2873 59.8541L88.3828 60.3208C88.3814 60.3211 88.3799 60.3215 88.3785 60.3218M88.2873 59.8541L88.3748 60.3225C88.376 60.3223 88.3773 60.322 88.3785 60.3218M88.2873 59.8541L85.4687 61.0547C83.1919 62.5055 81.8661 64.5769 82.5087 65.6797C83.1513 66.7825 85.5198 66.5 87.7964 65.0493C88.6823 64.4983 89.4692 63.794 90.109 62.9804M90.109 62.9804L89.7564 62.6774C89.7553 62.6787 89.7543 62.6801 89.7532 62.6814M90.109 62.9804L89.7506 62.6849C89.7515 62.6837 89.7524 62.6825 89.7532 62.6814M89.7532 62.6814C89.9541 62.4128 89.9492 62.1422 89.855 61.981L89.8547 61.9805L89.0204 60.5487L89.0196 60.5473C88.9266 60.3864 88.6992 60.2576 88.3785 60.3218M89.7532 62.6814C89.1483 63.4497 88.4031 64.1167 87.5631 64.6392L87.5631 64.6392L87.5589 64.6418C86.4641 65.3394 85.3657 65.7432 84.4883 65.8479C83.5689 65.9575 83.0719 65.7287 82.8986 65.4313C82.7253 65.1338 82.7587 64.5671 83.2733 63.763C83.7645 62.9956 84.6113 62.1599 85.7062 61.4623L85.7062 61.4623L85.7105 61.4595C86.5396 60.9179 87.4481 60.5309 88.3785 60.3218" stroke="black"/>
<path d="M88.2873 59.8541C88.7574 59.758 89.1981 59.9331 89.4103 60.3002L90.2446 61.732C90.4586 62.0981 90.4055 62.5874 90.109 62.9804M88.2873 59.8541L88.3828 60.3208C88.3814 60.3211 88.3799 60.3215 88.3785 60.3218M88.2873 59.8541L88.3748 60.3225C88.376 60.3223 88.3773 60.322 88.3785 60.3218M88.2873 59.8541L85.4687 61.0547C83.1919 62.5055 81.8661 64.5769 82.5087 65.6797C83.1513 66.7825 85.5198 66.5 87.7964 65.0493C88.6823 64.4983 89.4692 63.794 90.109 62.9804M90.109 62.9804L89.7564 62.6774C89.7553 62.6787 89.7543 62.6801 89.7532 62.6814M90.109 62.9804L89.7506 62.6849C89.7515 62.6837 89.7524 62.6825 89.7532 62.6814M89.7532 62.6814C89.9541 62.4128 89.9492 62.1422 89.855 61.981L89.8547 61.9805L89.0204 60.5487L89.0196 60.5473C88.9266 60.3864 88.6992 60.2576 88.3785 60.3218M89.7532 62.6814C89.1483 63.4497 88.4031 64.1167 87.5631 64.6392L87.5631 64.6392L87.5589 64.6418C86.4641 65.3394 85.3657 65.7432 84.4883 65.8479C83.5689 65.9575 83.0719 65.7287 82.8986 65.4313C82.7253 65.1338 82.7587 64.5671 83.2733 63.763C83.7645 62.9956 84.6113 62.1599 85.7062 61.4623L85.7062 61.4623L85.7105 61.4595C86.5396 60.9179 87.4481 60.5309 88.3785 60.3218" stroke="black" stroke-opacity="0.2"/>
<path d="M75.4246 61.4592L75.4251 61.4592L98.9046 64.051L82.4704 74.524L69.5304 65.6056L69.5304 65.6056L69.5291 65.6047C69.4986 65.5838 69.4761 65.5587 69.4604 65.5316L69.4602 65.5313C69.4019 65.4308 69.4058 65.155 69.7062 64.9641L69.7067 64.9638L75.0549 61.5555L75.0553 61.5553C75.1796 61.4759 75.3135 61.4468 75.4246 61.4592Z" fill="#029BC5"/>
<path d="M75.4246 61.4592L75.4251 61.4592L98.9046 64.051L82.4704 74.524L69.5304 65.6056L69.5304 65.6056L69.5291 65.6047C69.4986 65.5838 69.4761 65.5587 69.4604 65.5316L69.4602 65.5313C69.4019 65.4308 69.4058 65.155 69.7062 64.9641L69.7067 64.9638L75.0549 61.5555L75.0553 61.5553C75.1796 61.4759 75.3135 61.4468 75.4246 61.4592Z" stroke="black"/>
<path d="M75.4246 61.4592L75.4251 61.4592L98.9046 64.051L82.4704 74.524L69.5304 65.6056L69.5304 65.6056L69.5291 65.6047C69.4986 65.5838 69.4761 65.5587 69.4604 65.5316L69.4602 65.5313C69.4019 65.4308 69.4058 65.155 69.7062 64.9641L69.7067 64.9638L75.0549 61.5555L75.0553 61.5553C75.1796 61.4759 75.3135 61.4468 75.4246 61.4592Z" stroke="black" stroke-opacity="0.2"/>
<path d="M38.9827 102.014L119.482 52.3123L119.483 52.3118C121.837 50.8521 124.456 49.9581 127.073 49.7175C128.216 49.6188 129.342 49.657 130.425 49.8298L130.429 49.8304C131.38 49.9746 132.279 50.2521 133.099 50.6528C133.381 50.7926 133.711 50.8947 134.031 50.9829C134.168 51.0205 134.299 51.0547 134.428 51.0884C134.621 51.1389 134.81 51.1882 135.005 51.2459C135.633 51.4308 136.06 51.634 136.268 51.9164C136.274 51.939 136.281 51.9681 136.288 52.0033C136.31 52.1107 136.337 52.2741 136.353 52.4837C136.384 52.9027 136.367 53.5048 136.169 54.2155C135.778 55.6229 134.658 57.528 131.625 59.2856L131.85 59.6999L131.611 59.2941L83.1143 89.8242L54.4775 101.219L40.1866 104.06L38.9827 102.014Z" fill="#E1E6E9"/>
<path d="M38.9827 102.014L119.482 52.3123L119.483 52.3118C121.837 50.8521 124.456 49.9581 127.073 49.7175C128.216 49.6188 129.342 49.657 130.425 49.8298L130.429 49.8304C131.38 49.9746 132.279 50.2521 133.099 50.6528C133.381 50.7926 133.711 50.8947 134.031 50.9829C134.168 51.0205 134.299 51.0547 134.428 51.0884C134.621 51.1389 134.81 51.1882 135.005 51.2459C135.633 51.4308 136.06 51.634 136.268 51.9164C136.274 51.939 136.281 51.9681 136.288 52.0033C136.31 52.1107 136.337 52.2741 136.353 52.4837C136.384 52.9027 136.367 53.5048 136.169 54.2155C135.778 55.6229 134.658 57.528 131.625 59.2856L131.85 59.6999L131.611 59.2941L83.1143 89.8242L54.4775 101.219L40.1866 104.06L38.9827 102.014Z" stroke="black"/>
<path d="M38.9827 102.014L119.482 52.3123L119.483 52.3118C121.837 50.8521 124.456 49.9581 127.073 49.7175C128.216 49.6188 129.342 49.657 130.425 49.8298L130.429 49.8304C131.38 49.9746 132.279 50.2521 133.099 50.6528C133.381 50.7926 133.711 50.8947 134.031 50.9829C134.168 51.0205 134.299 51.0547 134.428 51.0884C134.621 51.1389 134.81 51.1882 135.005 51.2459C135.633 51.4308 136.06 51.634 136.268 51.9164C136.274 51.939 136.281 51.9681 136.288 52.0033C136.31 52.1107 136.337 52.2741 136.353 52.4837C136.384 52.9027 136.367 53.5048 136.169 54.2155C135.778 55.6229 134.658 57.528 131.625 59.2856L131.85 59.6999L131.611 59.2941L83.1143 89.8242L54.4775 101.219L40.1866 104.06L38.9827 102.014Z" stroke="black" stroke-opacity="0.2"/>
<path d="M63.475 120.41L63.475 120.41C63.3243 120.35 63.2229 120.176 63.3562 119.929L84.29 86.5566L110.462 69.2578L71.8954 114.599L71.8882 114.608L71.8814 114.616C71.1792 115.526 70.3094 116.318 69.3255 116.943C69.3255 116.943 69.3254 116.943 69.3254 116.943L63.9815 120.333L63.9812 120.333C63.7976 120.45 63.6036 120.461 63.475 120.41Z" fill="#029BC5"/>
<path d="M63.475 120.41L63.475 120.41C63.3243 120.35 63.2229 120.176 63.3562 119.929L84.29 86.5566L110.462 69.2578L71.8954 114.599L71.8882 114.608L71.8814 114.616C71.1792 115.526 70.3094 116.318 69.3255 116.943C69.3255 116.943 69.3254 116.943 69.3254 116.943L63.9815 120.333L63.9812 120.333C63.7976 120.45 63.6036 120.461 63.475 120.41Z" stroke="black"/>
<path d="M63.475 120.41L63.475 120.41C63.3243 120.35 63.2229 120.176 63.3562 119.929L84.29 86.5566L110.462 69.2578L71.8954 114.599L71.8882 114.608L71.8814 114.616C71.1792 115.526 70.3094 116.318 69.3255 116.943C69.3255 116.943 69.3254 116.943 69.3254 116.943L63.9815 120.333L63.9812 120.333C63.7976 120.45 63.6036 120.461 63.475 120.41Z" stroke="black" stroke-opacity="0.2"/>
<path d="M30.8398 85.5455L30.84 85.5455L49.429 91.8898L37.543 99.314L25.4122 89.5986L25.4117 89.5982C25.3656 89.5614 25.3283 89.5178 25.2997 89.4689C25.163 89.2336 25.2281 88.7688 25.683 88.4793L25.6831 88.4792L30.1006 85.6658C30.3536 85.5047 30.6325 85.4746 30.8398 85.5455Z" fill="#029BC5"/>
<path d="M30.8398 85.5455L30.84 85.5455L49.429 91.8898L37.543 99.314L25.4122 89.5986L25.4117 89.5982C25.3656 89.5614 25.3283 89.5178 25.2997 89.4689C25.163 89.2336 25.2281 88.7688 25.683 88.4793L25.6831 88.4792L30.1006 85.6658C30.3536 85.5047 30.6325 85.4746 30.8398 85.5455Z" stroke="black"/>
<path d="M30.8398 85.5455L30.84 85.5455L49.429 91.8898L37.543 99.314L25.4122 89.5986L25.4117 89.5982C25.3656 89.5614 25.3283 89.5178 25.2997 89.4689C25.163 89.2336 25.2281 88.7688 25.683 88.4793L25.6831 88.4792L30.1006 85.6658C30.3536 85.5047 30.6325 85.4746 30.8398 85.5455Z" stroke="black" stroke-opacity="0.2"/>
<path d="M39.2422 108.343L36.0048 110.395L41.9735 102.035L47.0987 98.7907L39.2422 108.343Z" fill="#029BC5"/>
<path d="M39.2422 108.343L36.0048 110.395L41.9735 102.035L47.0987 98.7907L39.2422 108.343Z" stroke="black"/>
<path d="M39.2422 108.343L36.0048 110.395L41.9735 102.035L47.0987 98.7907L39.2422 108.343Z" stroke="black" stroke-opacity="0.2"/>
<path d="M129.627 50.2348L129.627 50.2348L129.631 50.2353C130.308 50.3386 130.96 50.5082 131.577 50.7406L124.737 55.0958C124.683 55.1293 124.626 55.1485 124.574 55.1543C124.489 55.1634 124.442 55.1368 124.424 55.1206C124.411 55.1089 124.4 55.0932 124.399 55.0627C124.635 53.3495 125.313 51.6432 126.376 50.1035C127.484 50.0216 128.575 50.0657 129.627 50.2348Z" fill="#029BC5"/>
<path d="M129.627 50.2348L129.627 50.2348L129.631 50.2353C130.308 50.3386 130.96 50.5082 131.577 50.7406L124.737 55.0958C124.683 55.1293 124.626 55.1485 124.574 55.1543C124.489 55.1634 124.442 55.1368 124.424 55.1206C124.411 55.1089 124.4 55.0932 124.399 55.0627C124.635 53.3495 125.313 51.6432 126.376 50.1035C127.484 50.0216 128.575 50.0657 129.627 50.2348Z" stroke="black"/>
<path d="M129.627 50.2348L129.627 50.2348L129.631 50.2353C130.308 50.3386 130.96 50.5082 131.577 50.7406L124.737 55.0958C124.683 55.1293 124.626 55.1485 124.574 55.1543C124.489 55.1634 124.442 55.1368 124.424 55.1206C124.411 55.1089 124.4 55.0932 124.399 55.0627C124.635 53.3495 125.313 51.6432 126.376 50.1035C127.484 50.0216 128.575 50.0657 129.627 50.2348Z" stroke="black" stroke-opacity="0.2"/>
<path d="M113.746 58.8307L117.933 56.1868L122.082 63.2439L117.896 65.8878L113.746 58.8307Z" fill="#D5D6DB"/>
<path d="M113.746 58.8307L117.933 56.1868L122.082 63.2439L117.896 65.8878L113.746 58.8307Z" stroke="black"/>
<path d="M113.746 58.8307L117.933 56.1868L122.082 63.2439L117.896 65.8878L113.746 58.8307Z" stroke="black" stroke-opacity="0.2"/>
<path d="M109.848 63.1641C109.714 62.9359 109.776 62.4775 110.23 62.1902C110.683 61.9037 111.102 62.0572 111.235 62.2854L111.721 63.1174C111.837 63.3457 111.77 63.7712 111.353 64.0523C110.911 64.3504 110.483 64.2181 110.334 63.9962L109.848 63.1641Z" fill="#3A556A"/>
<path d="M109.848 63.1641C109.714 62.9359 109.776 62.4775 110.23 62.1902C110.683 61.9037 111.102 62.0572 111.235 62.2854L111.721 63.1174C111.837 63.3457 111.77 63.7712 111.353 64.0523C110.911 64.3504 110.483 64.2181 110.334 63.9962L109.848 63.1641Z" stroke="black"/>
<path d="M109.848 63.1641C109.714 62.9359 109.776 62.4775 110.23 62.1902C110.683 61.9037 111.102 62.0572 111.235 62.2854L111.721 63.1174C111.837 63.3457 111.77 63.7712 111.353 64.0523C110.911 64.3504 110.483 64.2181 110.334 63.9962L109.848 63.1641Z" stroke="black" stroke-opacity="0.2"/>
<path d="M105.383 65.9366C105.25 65.7084 105.312 65.2499 105.765 64.9627C106.218 64.6764 106.637 64.8297 106.771 65.0581L107.257 65.8898C107.373 66.1181 107.305 66.5437 106.889 66.8248C106.447 67.1229 106.018 66.9905 105.87 66.7686L105.383 65.9366Z" fill="#3A556A"/>
<path d="M105.383 65.9366C105.25 65.7084 105.312 65.2499 105.765 64.9627C106.218 64.6764 106.637 64.8297 106.771 65.0581L107.257 65.8898C107.373 66.1181 107.305 66.5437 106.889 66.8248C106.447 67.1229 106.018 66.9905 105.87 66.7686L105.383 65.9366Z" stroke="black"/>
<path d="M105.383 65.9366C105.25 65.7084 105.312 65.2499 105.765 64.9627C106.218 64.6764 106.637 64.8297 106.771 65.0581L107.257 65.8898C107.373 66.1181 107.305 66.5437 106.889 66.8248C106.447 67.1229 106.018 66.9905 105.87 66.7686L105.383 65.9366Z" stroke="black" stroke-opacity="0.2"/>
<path d="M101.3 67.7358C100.847 68.0234 100.786 68.4811 100.919 68.7091L101.405 69.5411C101.554 69.763 101.982 69.8953 102.424 69.5974L101.3 67.7358ZM101.3 67.7358C101.753 67.4486 102.173 67.6021 102.306 67.8304L102.793 68.6623C102.908 68.8906 102.841 69.3162 102.424 69.5973L101.3 67.7358Z" fill="#3A556A"/>
<path d="M101.3 67.7358C100.847 68.0234 100.786 68.4811 100.919 68.7091L101.405 69.5411C101.554 69.763 101.982 69.8953 102.424 69.5974L101.3 67.7358ZM101.3 67.7358C101.753 67.4486 102.173 67.6021 102.306 67.8304L102.793 68.6623C102.908 68.8906 102.841 69.3162 102.424 69.5973L101.3 67.7358Z" stroke="black"/>
<path d="M101.3 67.7358C100.847 68.0234 100.786 68.4811 100.919 68.7091L101.405 69.5411C101.554 69.763 101.982 69.8953 102.424 69.5974L101.3 67.7358ZM101.3 67.7358C101.753 67.4486 102.173 67.6021 102.306 67.8304L102.793 68.6623C102.908 68.8906 102.841 69.3162 102.424 69.5973L101.3 67.7358Z" stroke="black" stroke-opacity="0.2"/>
<path d="M96.4545 71.4815C96.3212 71.2534 96.3826 70.7958 96.8353 70.5082C97.2885 70.2212 97.7081 70.3745 97.8418 70.603L98.3282 71.4347C98.4438 71.6631 98.3762 72.0886 97.9597 72.3697C97.5178 72.6678 97.0893 72.5354 96.941 72.3136L96.4545 71.4815Z" fill="#3A556A"/>
<path d="M96.4545 71.4815C96.3212 71.2534 96.3826 70.7958 96.8353 70.5082C97.2885 70.2212 97.7081 70.3745 97.8418 70.603L98.3282 71.4347C98.4438 71.6631 98.3762 72.0886 97.9597 72.3697C97.5178 72.6678 97.0893 72.5354 96.941 72.3136L96.4545 71.4815Z" stroke="black"/>
<path d="M96.4545 71.4815C96.3212 71.2534 96.3826 70.7958 96.8353 70.5082C97.2885 70.2212 97.7081 70.3745 97.8418 70.603L98.3282 71.4347C98.4438 71.6631 98.3762 72.0886 97.9597 72.3697C97.5178 72.6678 97.0893 72.5354 96.941 72.3136L96.4545 71.4815Z" stroke="black" stroke-opacity="0.2"/>
<path d="M92.1334 72.8743C91.5351 73.2541 91.2966 73.9824 91.6004 74.5018L92.093 75.3442C92.3967 75.8635 93.1279 75.9772 93.7263 75.5982C94.3247 75.2192 94.5636 74.491 94.2599 73.9717L93.7673 73.1294C93.4644 72.6097 92.7334 72.4952 92.1346 72.8735M92.1334 72.8743L92.3712 73.2809L92.3712 73.2809L92.3712 73.2809L92.3712 73.2809L92.3712 73.2809L92.3712 73.2809L92.3712 73.2809L92.3712 73.2809L92.3712 73.2809L92.3712 73.2809L92.3712 73.2809L92.3712 73.2809L92.3712 73.2809L92.3712 73.2809L92.3712 73.2809L92.3712 73.2809L92.3712 73.2809L92.3712 73.2809L92.3712 73.2809L92.3712 73.2809L92.3712 73.2809L92.3712 73.2809L92.3712 73.2809L92.3712 73.2809L92.3712 73.2809L92.3713 73.2809L92.3713 73.2809L92.3713 73.2809L92.3713 73.2809L92.3713 73.2809L92.3713 73.2809L92.3713 73.2809L92.3713 73.2809L92.3713 73.2809L92.3713 73.2809L92.3713 73.2809L92.3713 73.2809L92.3713 73.2809L92.3713 73.2809L92.3713 73.2809L92.3713 73.2809L92.3713 73.2809L92.3713 73.2809L92.3713 73.2809L92.3713 73.2809L92.3713 73.2809L92.3713 73.2809L92.3713 73.2809L92.3713 73.2809L92.3713 73.2809L92.3713 73.2809L92.3713 73.2809L92.3713 73.2809L92.3713 73.2809L92.3713 73.2809L92.3713 73.2809L92.3713 73.2808L92.3713 73.2808L92.3713 73.2808L92.3713 73.2808L92.3713 73.2808L92.3713 73.2808L92.3714 73.2808L92.3714 73.2808L92.3714 73.2808L92.3714 73.2808L92.3714 73.2808L92.3714 73.2808L92.3714 73.2808L92.3714 73.2808L92.3714 73.2808L92.3714 73.2808L92.3714 73.2808L92.3714 73.2808L92.3714 73.2808L92.3714 73.2808L92.3714 73.2808L92.3714 73.2808L92.3714 73.2808L92.3714 73.2808L92.3714 73.2808L92.3714 73.2808L92.3714 73.2808L92.3714 73.2808M92.1334 72.8743L92.3716 73.2807C92.3715 73.2807 92.3715 73.2808 92.3714 73.2808M92.1334 72.8743L92.1346 72.8735M92.3714 73.2808C91.9182 73.5686 91.8568 74.0266 91.9903 74.2549L92.4829 75.0973C92.6161 75.3251 93.0352 75.4786 93.4885 75.1915C93.9418 74.9045 94.0033 74.4465 93.87 74.2187L93.3774 73.3763L93.3771 73.3757C93.2443 73.1479 92.8258 72.9938 92.3722 73.2803M92.3714 73.2808L92.3714 73.2808L92.3714 73.2808L92.3714 73.2808L92.3714 73.2808L92.3714 73.2808L92.3714 73.2808L92.3714 73.2808L92.3714 73.2808L92.3714 73.2808L92.3714 73.2808L92.3714 73.2808L92.3714 73.2808L92.3714 73.2808L92.3714 73.2808L92.3714 73.2808L92.3714 73.2808L92.3714 73.2808L92.3715 73.2808L92.3715 73.2808L92.3715 73.2808L92.3715 73.2808L92.3715 73.2808L92.3715 73.2808L92.3715 73.2808L92.3715 73.2808L92.3715 73.2808L92.3715 73.2808L92.3715 73.2808L92.3715 73.2808L92.3715 73.2808L92.3715 73.2808L92.3715 73.2808L92.3715 73.2808L92.3715 73.2808L92.3715 73.2807L92.3715 73.2807L92.3715 73.2807L92.3715 73.2807L92.3715 73.2807L92.3715 73.2807L92.3715 73.2807L92.3715 73.2807L92.3715 73.2807L92.3715 73.2807L92.3715 73.2807L92.3715 73.2807L92.3715 73.2807L92.3715 73.2807L92.3715 73.2807L92.3715 73.2807L92.3715 73.2807L92.3715 73.2807L92.3715 73.2807L92.3715 73.2807L92.3715 73.2807L92.3715 73.2807L92.3715 73.2807L92.3715 73.2807L92.3716 73.2807L92.3716 73.2807L92.3716 73.2807L92.3716 73.2807L92.3716 73.2807L92.3716 73.2807L92.3716 73.2807L92.3716 73.2807L92.3716 73.2807L92.3716 73.2807L92.3716 73.2807L92.3716 73.2807L92.3716 73.2807L92.3716 73.2807L92.3716 73.2807L92.3716 73.2807L92.3716 73.2807L92.3716 73.2807L92.3716 73.2807L92.3716 73.2807L92.3716 73.2807L92.3716 73.2807L92.3716 73.2807L92.3716 73.2807L92.3716 73.2807L92.3716 73.2807L92.3716 73.2807L92.3716 73.2807L92.3716 73.2807L92.3716 73.2807L92.3716 73.2807L92.3716 73.2807L92.3716 73.2807L92.3716 73.2807L92.3716 73.2807L92.3716 73.2807L92.3716 73.2807L92.3716 73.2807L92.3716 73.2807L92.3716 73.2807L92.3716 73.2807L92.3716 73.2807L92.3716 73.2807L92.3717 73.2806L92.3717 73.2806L92.3717 73.2806L92.3717 73.2806L92.3717 73.2806L92.3717 73.2806L92.3717 73.2806L92.3717 73.2806L92.3717 73.2806L92.3717 73.2806L92.3717 73.2806L92.3717 73.2806L92.3717 73.2806L92.3717 73.2806L92.3717 73.2806L92.3717 73.2806L92.3717 73.2806L92.3717 73.2806L92.3717 73.2806L92.3717 73.2806L92.3717 73.2806L92.3717 73.2806L92.3717 73.2806L92.3717 73.2806L92.3717 73.2806L92.3717 73.2806L92.3717 73.2806L92.3717 73.2806L92.3717 73.2806L92.3717 73.2806L92.3717 73.2806L92.3717 73.2806L92.3717 73.2806L92.3717 73.2806L92.3717 73.2806L92.3717 73.2806L92.3717 73.2806L92.3717 73.2806L92.3717 73.2806L92.3717 73.2806L92.3717 73.2806L92.3717 73.2806L92.3717 73.2806L92.3717 73.2806L92.3718 73.2806L92.3718 73.2806L92.3718 73.2806L92.3718 73.2806L92.3718 73.2806L92.3718 73.2806L92.3718 73.2806L92.3718 73.2806L92.3718 73.2806L92.3718 73.2806L92.3718 73.2806L92.3718 73.2806L92.3718 73.2806L92.3718 73.2806L92.3718 73.2806L92.3718 73.2806L92.3718 73.2806L92.3718 73.2806L92.3718 73.2806L92.3718 73.2806L92.3718 73.2806L92.3718 73.2806L92.3718 73.2806L92.3718 73.2806L92.3718 73.2806L92.3718 73.2806L92.3718 73.2805L92.3718 73.2805L92.3718 73.2805L92.3718 73.2805L92.3718 73.2805L92.3718 73.2805L92.3718 73.2805L92.3718 73.2805L92.3718 73.2805L92.3718 73.2805L92.3718 73.2805L92.3718 73.2805L92.3718 73.2805L92.3718 73.2805L92.3718 73.2805L92.3718 73.2805L92.3718 73.2805L92.3718 73.2805L92.3718 73.2805L92.3719 73.2805L92.3719 73.2805L92.3719 73.2805L92.3719 73.2805L92.3719 73.2805L92.3719 73.2805L92.3719 73.2805L92.3719 73.2805L92.3719 73.2805L92.3719 73.2805L92.3719 73.2805L92.3719 73.2805L92.3719 73.2805L92.3719 73.2805L92.3719 73.2805L92.3719 73.2805L92.3719 73.2805L92.3719 73.2805L92.3719 73.2805L92.3719 73.2805L92.3719 73.2805L92.3719 73.2805L92.3719 73.2805L92.3719 73.2805L92.3719 73.2805L92.3719 73.2805L92.3719 73.2805L92.3719 73.2805L92.3719 73.2805L92.3719 73.2805L92.3719 73.2805L92.3719 73.2805L92.3719 73.2805L92.3719 73.2805L92.3719 73.2805L92.3719 73.2805L92.3719 73.2805L92.3719 73.2805L92.3719 73.2805L92.3719 73.2805L92.3719 73.2805L92.3719 73.2805L92.3719 73.2805L92.3719 73.2805L92.3719 73.2805L92.372 73.2805L92.372 73.2805L92.372 73.2805L92.372 73.2805L92.372 73.2805L92.372 73.2805L92.372 73.2804L92.372 73.2804L92.372 73.2804L92.372 73.2804L92.372 73.2804L92.372 73.2804L92.372 73.2804L92.372 73.2804L92.372 73.2804L92.372 73.2804L92.372 73.2804L92.372 73.2804L92.372 73.2804L92.372 73.2804L92.372 73.2804L92.372 73.2804L92.372 73.2804L92.372 73.2804L92.372 73.2804L92.372 73.2804L92.372 73.2804L92.372 73.2804L92.372 73.2804L92.372 73.2804L92.372 73.2804L92.372 73.2804L92.372 73.2804L92.372 73.2804L92.372 73.2804L92.372 73.2804L92.372 73.2804L92.372 73.2804L92.372 73.2804L92.372 73.2804L92.372 73.2804L92.372 73.2804L92.372 73.2804L92.3721 73.2804L92.3721 73.2804L92.3721 73.2804L92.3721 73.2804L92.3721 73.2804L92.3721 73.2804L92.3721 73.2804L92.3721 73.2804L92.3721 73.2804L92.3721 73.2804L92.3721 73.2804L92.3721 73.2804L92.3721 73.2804L92.3721 73.2804L92.3721 73.2804L92.3721 73.2804L92.3721 73.2804L92.3721 73.2804L92.3721 73.2804L92.3721 73.2804L92.3721 73.2804L92.3721 73.2804L92.3721 73.2804L92.3721 73.2804L92.3721 73.2804L92.3721 73.2804L92.3721 73.2804L92.3721 73.2804L92.3721 73.2804L92.3721 73.2804L92.3721 73.2803L92.3721 73.2803L92.3721 73.2803L92.3721 73.2803L92.3721 73.2803L92.3721 73.2803L92.3721 73.2803L92.3721 73.2803L92.3721 73.2803L92.3721 73.2803L92.3721 73.2803L92.3721 73.2803L92.3722 73.2803L92.3722 73.2803L92.3722 73.2803L92.3722 73.2803L92.3722 73.2803L92.3722 73.2803L92.3722 73.2803L92.3722 73.2803L92.3722 73.2803L92.3722 73.2803L92.3722 73.2803L92.3722 73.2803L92.3722 73.2803L92.3722 73.2803L92.3722 73.2803L92.3722 73.2803L92.3722 73.2803L92.3722 73.2803L92.3722 73.2803L92.3722 73.2803L92.3722 73.2803L92.3722 73.2803L92.3722 73.2803L92.3722 73.2803L92.3722 73.2803L92.3722 73.2803M92.3722 73.2803L92.3722 73.2803L92.3722 73.2803L92.3722 73.2803L92.3722 73.2803L92.3722 73.2803L92.3722 73.2803L92.3722 73.2803L92.3722 73.2803L92.3722 73.2803L92.3722 73.2803L92.3722 73.2803L92.3722 73.2803L92.3722 73.2803L92.3723 73.2803L92.3723 73.2803L92.3723 73.2803L92.3723 73.2803L92.3723 73.2803L92.3723 73.2803L92.3723 73.2803L92.3723 73.2803L92.3723 73.2803L92.3723 73.2803L92.3723 73.2803L92.3723 73.2803L92.3723 73.2802L92.3723 73.2802L92.3723 73.2802L92.3723 73.2802L92.3723 73.2802L92.3723 73.2802L92.3723 73.2802L92.3723 73.2802L92.3723 73.2802L92.3723 73.2802L92.3723 73.2802L92.3723 73.2802L92.3723 73.2802L92.3723 73.2802L92.3723 73.2802L92.3723 73.2802L92.3723 73.2802L92.3723 73.2802L92.3723 73.2802L92.3723 73.2802L92.3723 73.2802L92.3723 73.2802L92.3723 73.2802L92.3723 73.2802L92.3723 73.2802L92.3724 73.2802L92.3724 73.2802L92.3724 73.2802L92.3724 73.2802L92.3724 73.2802L92.3724 73.2802L92.3724 73.2802L92.3724 73.2802L92.3724 73.2802L92.3724 73.2802L92.3724 73.2802L92.3724 73.2802L92.3724 73.2802L92.3724 73.2802L92.3724 73.2802L92.3724 73.2802L92.3724 73.2802L92.3724 73.2802L92.3724 73.2802L92.3724 73.2802L92.3724 73.2802L92.3724 73.2802L92.3724 73.2802L92.3724 73.2802L92.3724 73.2802L92.3724 73.2802L92.3724 73.2802L92.3724 73.2802L92.3724 73.2802L92.3724 73.2802L92.3724 73.2802L92.3724 73.2801L92.3724 73.2801L92.1346 72.8735M92.3722 73.2803C92.3722 73.2803 92.3721 73.2804 92.372 73.2804L92.1346 72.8735" fill="#3A556A"/>
<path d="M92.1334 72.8743C91.5351 73.2541 91.2966 73.9824 91.6004 74.5018L92.093 75.3442C92.3967 75.8635 93.1279 75.9772 93.7263 75.5982C94.3247 75.2192 94.5636 74.491 94.2599 73.9717L93.7673 73.1294C93.4644 72.6097 92.7334 72.4952 92.1346 72.8735M92.1334 72.8743L92.3712 73.2809L92.3712 73.2809L92.3712 73.2809L92.3712 73.2809L92.3712 73.2809L92.3712 73.2809L92.3712 73.2809L92.3712 73.2809L92.3712 73.2809L92.3712 73.2809L92.3712 73.2809L92.3712 73.2809L92.3712 73.2809L92.3712 73.2809L92.3712 73.2809L92.3712 73.2809L92.3712 73.2809L92.3712 73.2809L92.3712 73.2809L92.3712 73.2809L92.3712 73.2809L92.3712 73.2809L92.3712 73.2809L92.3712 73.2809L92.3712 73.2809L92.3713 73.2809L92.3713 73.2809L92.3713 73.2809L92.3713 73.2809L92.3713 73.2809L92.3713 73.2809L92.3713 73.2809L92.3713 73.2809L92.3713 73.2809L92.3713 73.2809L92.3713 73.2809L92.3713 73.2809L92.3713 73.2809L92.3713 73.2809L92.3713 73.2809L92.3713 73.2809L92.3713 73.2809L92.3713 73.2809L92.3713 73.2809L92.3713 73.2809L92.3713 73.2809L92.3713 73.2809L92.3713 73.2809L92.3713 73.2809L92.3713 73.2809L92.3713 73.2809L92.3713 73.2809L92.3713 73.2809L92.3713 73.2809L92.3713 73.2809L92.3713 73.2809L92.3713 73.2808L92.3713 73.2808L92.3713 73.2808L92.3713 73.2808L92.3713 73.2808L92.3713 73.2808L92.3714 73.2808L92.3714 73.2808L92.3714 73.2808L92.3714 73.2808L92.3714 73.2808L92.3714 73.2808L92.3714 73.2808L92.3714 73.2808L92.3714 73.2808L92.3714 73.2808L92.3714 73.2808L92.3714 73.2808L92.3714 73.2808L92.3714 73.2808L92.3714 73.2808L92.3714 73.2808L92.3714 73.2808L92.3714 73.2808L92.3714 73.2808L92.3714 73.2808L92.3714 73.2808L92.3714 73.2808M92.1334 72.8743L92.3716 73.2807C92.3715 73.2807 92.3715 73.2808 92.3714 73.2808M92.1334 72.8743L92.1346 72.8735M92.3714 73.2808C91.9182 73.5686 91.8568 74.0266 91.9903 74.2549L92.4829 75.0973C92.6161 75.3251 93.0352 75.4786 93.4885 75.1915C93.9418 74.9045 94.0033 74.4465 93.87 74.2187L93.3774 73.3763L93.3771 73.3757C93.2443 73.1479 92.8258 72.9938 92.3722 73.2803M92.3714 73.2808L92.3714 73.2808L92.3714 73.2808L92.3714 73.2808L92.3714 73.2808L92.3714 73.2808L92.3714 73.2808L92.3714 73.2808L92.3714 73.2808L92.3714 73.2808L92.3714 73.2808L92.3714 73.2808L92.3714 73.2808L92.3714 73.2808L92.3714 73.2808L92.3714 73.2808L92.3714 73.2808L92.3714 73.2808L92.3715 73.2808L92.3715 73.2808L92.3715 73.2808L92.3715 73.2808L92.3715 73.2808L92.3715 73.2808L92.3715 73.2808L92.3715 73.2808L92.3715 73.2808L92.3715 73.2808L92.3715 73.2808L92.3715 73.2808L92.3715 73.2808L92.3715 73.2808L92.3715 73.2808L92.3715 73.2808L92.3715 73.2808L92.3715 73.2807L92.3715 73.2807L92.3715 73.2807L92.3715 73.2807L92.3715 73.2807L92.3715 73.2807L92.3715 73.2807L92.3715 73.2807L92.3715 73.2807L92.3715 73.2807L92.3715 73.2807L92.3715 73.2807L92.3715 73.2807L92.3715 73.2807L92.3715 73.2807L92.3715 73.2807L92.3715 73.2807L92.3715 73.2807L92.3715 73.2807L92.3715 73.2807L92.3715 73.2807L92.3715 73.2807L92.3715 73.2807L92.3715 73.2807L92.3716 73.2807L92.3716 73.2807L92.3716 73.2807L92.3716 73.2807L92.3716 73.2807L92.3716 73.2807L92.3716 73.2807L92.3716 73.2807L92.3716 73.2807L92.3716 73.2807L92.3716 73.2807L92.3716 73.2807L92.3716 73.2807L92.3716 73.2807L92.3716 73.2807L92.3716 73.2807L92.3716 73.2807L92.3716 73.2807L92.3716 73.2807L92.3716 73.2807L92.3716 73.2807L92.3716 73.2807L92.3716 73.2807L92.3716 73.2807L92.3716 73.2807L92.3716 73.2807L92.3716 73.2807L92.3716 73.2807L92.3716 73.2807L92.3716 73.2807L92.3716 73.2807L92.3716 73.2807L92.3716 73.2807L92.3716 73.2807L92.3716 73.2807L92.3716 73.2807L92.3716 73.2807L92.3716 73.2807L92.3716 73.2807L92.3716 73.2807L92.3716 73.2807L92.3716 73.2807L92.3716 73.2807L92.3717 73.2806L92.3717 73.2806L92.3717 73.2806L92.3717 73.2806L92.3717 73.2806L92.3717 73.2806L92.3717 73.2806L92.3717 73.2806L92.3717 73.2806L92.3717 73.2806L92.3717 73.2806L92.3717 73.2806L92.3717 73.2806L92.3717 73.2806L92.3717 73.2806L92.3717 73.2806L92.3717 73.2806L92.3717 73.2806L92.3717 73.2806L92.3717 73.2806L92.3717 73.2806L92.3717 73.2806L92.3717 73.2806L92.3717 73.2806L92.3717 73.2806L92.3717 73.2806L92.3717 73.2806L92.3717 73.2806L92.3717 73.2806L92.3717 73.2806L92.3717 73.2806L92.3717 73.2806L92.3717 73.2806L92.3717 73.2806L92.3717 73.2806L92.3717 73.2806L92.3717 73.2806L92.3717 73.2806L92.3717 73.2806L92.3717 73.2806L92.3717 73.2806L92.3717 73.2806L92.3717 73.2806L92.3717 73.2806L92.3718 73.2806L92.3718 73.2806L92.3718 73.2806L92.3718 73.2806L92.3718 73.2806L92.3718 73.2806L92.3718 73.2806L92.3718 73.2806L92.3718 73.2806L92.3718 73.2806L92.3718 73.2806L92.3718 73.2806L92.3718 73.2806L92.3718 73.2806L92.3718 73.2806L92.3718 73.2806L92.3718 73.2806L92.3718 73.2806L92.3718 73.2806L92.3718 73.2806L92.3718 73.2806L92.3718 73.2806L92.3718 73.2806L92.3718 73.2806L92.3718 73.2806L92.3718 73.2806L92.3718 73.2805L92.3718 73.2805L92.3718 73.2805L92.3718 73.2805L92.3718 73.2805L92.3718 73.2805L92.3718 73.2805L92.3718 73.2805L92.3718 73.2805L92.3718 73.2805L92.3718 73.2805L92.3718 73.2805L92.3718 73.2805L92.3718 73.2805L92.3718 73.2805L92.3718 73.2805L92.3718 73.2805L92.3718 73.2805L92.3718 73.2805L92.3719 73.2805L92.3719 73.2805L92.3719 73.2805L92.3719 73.2805L92.3719 73.2805L92.3719 73.2805L92.3719 73.2805L92.3719 73.2805L92.3719 73.2805L92.3719 73.2805L92.3719 73.2805L92.3719 73.2805L92.3719 73.2805L92.3719 73.2805L92.3719 73.2805L92.3719 73.2805L92.3719 73.2805L92.3719 73.2805L92.3719 73.2805L92.3719 73.2805L92.3719 73.2805L92.3719 73.2805L92.3719 73.2805L92.3719 73.2805L92.3719 73.2805L92.3719 73.2805L92.3719 73.2805L92.3719 73.2805L92.3719 73.2805L92.3719 73.2805L92.3719 73.2805L92.3719 73.2805L92.3719 73.2805L92.3719 73.2805L92.3719 73.2805L92.3719 73.2805L92.3719 73.2805L92.3719 73.2805L92.3719 73.2805L92.3719 73.2805L92.3719 73.2805L92.3719 73.2805L92.3719 73.2805L92.3719 73.2805L92.3719 73.2805L92.372 73.2805L92.372 73.2805L92.372 73.2805L92.372 73.2805L92.372 73.2805L92.372 73.2805L92.372 73.2804L92.372 73.2804L92.372 73.2804L92.372 73.2804L92.372 73.2804L92.372 73.2804L92.372 73.2804L92.372 73.2804L92.372 73.2804L92.372 73.2804L92.372 73.2804L92.372 73.2804L92.372 73.2804L92.372 73.2804L92.372 73.2804L92.372 73.2804L92.372 73.2804L92.372 73.2804L92.372 73.2804L92.372 73.2804L92.372 73.2804L92.372 73.2804L92.372 73.2804L92.372 73.2804L92.372 73.2804L92.372 73.2804L92.372 73.2804L92.372 73.2804L92.372 73.2804L92.372 73.2804L92.372 73.2804L92.372 73.2804L92.372 73.2804L92.372 73.2804L92.372 73.2804L92.372 73.2804L92.372 73.2804L92.3721 73.2804L92.3721 73.2804L92.3721 73.2804L92.3721 73.2804L92.3721 73.2804L92.3721 73.2804L92.3721 73.2804L92.3721 73.2804L92.3721 73.2804L92.3721 73.2804L92.3721 73.2804L92.3721 73.2804L92.3721 73.2804L92.3721 73.2804L92.3721 73.2804L92.3721 73.2804L92.3721 73.2804L92.3721 73.2804L92.3721 73.2804L92.3721 73.2804L92.3721 73.2804L92.3721 73.2804L92.3721 73.2804L92.3721 73.2804L92.3721 73.2804L92.3721 73.2804L92.3721 73.2804L92.3721 73.2804L92.3721 73.2804L92.3721 73.2804L92.3721 73.2803L92.3721 73.2803L92.3721 73.2803L92.3721 73.2803L92.3721 73.2803L92.3721 73.2803L92.3721 73.2803L92.3721 73.2803L92.3721 73.2803L92.3721 73.2803L92.3721 73.2803L92.3721 73.2803L92.3722 73.2803L92.3722 73.2803L92.3722 73.2803L92.3722 73.2803L92.3722 73.2803L92.3722 73.2803L92.3722 73.2803L92.3722 73.2803L92.3722 73.2803L92.3722 73.2803L92.3722 73.2803L92.3722 73.2803L92.3722 73.2803L92.3722 73.2803L92.3722 73.2803L92.3722 73.2803L92.3722 73.2803L92.3722 73.2803L92.3722 73.2803L92.3722 73.2803L92.3722 73.2803L92.3722 73.2803L92.3722 73.2803L92.3722 73.2803L92.3722 73.2803L92.3722 73.2803M92.3722 73.2803L92.3722 73.2803L92.3722 73.2803L92.3722 73.2803L92.3722 73.2803L92.3722 73.2803L92.3722 73.2803L92.3722 73.2803L92.3722 73.2803L92.3722 73.2803L92.3722 73.2803L92.3722 73.2803L92.3722 73.2803L92.3722 73.2803L92.3723 73.2803L92.3723 73.2803L92.3723 73.2803L92.3723 73.2803L92.3723 73.2803L92.3723 73.2803L92.3723 73.2803L92.3723 73.2803L92.3723 73.2803L92.3723 73.2803L92.3723 73.2803L92.3723 73.2803L92.3723 73.2802L92.3723 73.2802L92.3723 73.2802L92.3723 73.2802L92.3723 73.2802L92.3723 73.2802L92.3723 73.2802L92.3723 73.2802L92.3723 73.2802L92.3723 73.2802L92.3723 73.2802L92.3723 73.2802L92.3723 73.2802L92.3723 73.2802L92.3723 73.2802L92.3723 73.2802L92.3723 73.2802L92.3723 73.2802L92.3723 73.2802L92.3723 73.2802L92.3723 73.2802L92.3723 73.2802L92.3723 73.2802L92.3723 73.2802L92.3723 73.2802L92.3724 73.2802L92.3724 73.2802L92.3724 73.2802L92.3724 73.2802L92.3724 73.2802L92.3724 73.2802L92.3724 73.2802L92.3724 73.2802L92.3724 73.2802L92.3724 73.2802L92.3724 73.2802L92.3724 73.2802L92.3724 73.2802L92.3724 73.2802L92.3724 73.2802L92.3724 73.2802L92.3724 73.2802L92.3724 73.2802L92.3724 73.2802L92.3724 73.2802L92.3724 73.2802L92.3724 73.2802L92.3724 73.2802L92.3724 73.2802L92.3724 73.2802L92.3724 73.2802L92.3724 73.2802L92.3724 73.2802L92.3724 73.2802L92.3724 73.2802L92.3724 73.2802L92.3724 73.2801L92.3724 73.2801L92.1346 72.8735M92.3722 73.2803C92.3722 73.2803 92.3721 73.2804 92.372 73.2804L92.1346 72.8735" stroke="black"/>
<path d="M92.1334 72.8743C91.5351 73.2541 91.2966 73.9824 91.6004 74.5018L92.093 75.3442C92.3967 75.8635 93.1279 75.9772 93.7263 75.5982C94.3247 75.2192 94.5636 74.491 94.2599 73.9717L93.7673 73.1294C93.4644 72.6097 92.7334 72.4952 92.1346 72.8735M92.1334 72.8743L92.3712 73.2809L92.3712 73.2809L92.3712 73.2809L92.3712 73.2809L92.3712 73.2809L92.3712 73.2809L92.3712 73.2809L92.3712 73.2809L92.3712 73.2809L92.3712 73.2809L92.3712 73.2809L92.3712 73.2809L92.3712 73.2809L92.3712 73.2809L92.3712 73.2809L92.3712 73.2809L92.3712 73.2809L92.3712 73.2809L92.3712 73.2809L92.3712 73.2809L92.3712 73.2809L92.3712 73.2809L92.3712 73.2809L92.3712 73.2809L92.3712 73.2809L92.3713 73.2809L92.3713 73.2809L92.3713 73.2809L92.3713 73.2809L92.3713 73.2809L92.3713 73.2809L92.3713 73.2809L92.3713 73.2809L92.3713 73.2809L92.3713 73.2809L92.3713 73.2809L92.3713 73.2809L92.3713 73.2809L92.3713 73.2809L92.3713 73.2809L92.3713 73.2809L92.3713 73.2809L92.3713 73.2809L92.3713 73.2809L92.3713 73.2809L92.3713 73.2809L92.3713 73.2809L92.3713 73.2809L92.3713 73.2809L92.3713 73.2809L92.3713 73.2809L92.3713 73.2809L92.3713 73.2809L92.3713 73.2809L92.3713 73.2809L92.3713 73.2809L92.3713 73.2808L92.3713 73.2808L92.3713 73.2808L92.3713 73.2808L92.3713 73.2808L92.3713 73.2808L92.3714 73.2808L92.3714 73.2808L92.3714 73.2808L92.3714 73.2808L92.3714 73.2808L92.3714 73.2808L92.3714 73.2808L92.3714 73.2808L92.3714 73.2808L92.3714 73.2808L92.3714 73.2808L92.3714 73.2808L92.3714 73.2808L92.3714 73.2808L92.3714 73.2808L92.3714 73.2808L92.3714 73.2808L92.3714 73.2808L92.3714 73.2808L92.3714 73.2808L92.3714 73.2808L92.3714 73.2808M92.1334 72.8743L92.3716 73.2807C92.3715 73.2807 92.3715 73.2808 92.3714 73.2808M92.1334 72.8743L92.1346 72.8735M92.3714 73.2808C91.9182 73.5686 91.8568 74.0266 91.9903 74.2549L92.4829 75.0973C92.6161 75.3251 93.0352 75.4786 93.4885 75.1915C93.9418 74.9045 94.0033 74.4465 93.87 74.2187L93.3774 73.3763L93.3771 73.3757C93.2443 73.1479 92.8258 72.9938 92.3722 73.2803M92.3714 73.2808L92.3714 73.2808L92.3714 73.2808L92.3714 73.2808L92.3714 73.2808L92.3714 73.2808L92.3714 73.2808L92.3714 73.2808L92.3714 73.2808L92.3714 73.2808L92.3714 73.2808L92.3714 73.2808L92.3714 73.2808L92.3714 73.2808L92.3714 73.2808L92.3714 73.2808L92.3714 73.2808L92.3714 73.2808L92.3715 73.2808L92.3715 73.2808L92.3715 73.2808L92.3715 73.2808L92.3715 73.2808L92.3715 73.2808L92.3715 73.2808L92.3715 73.2808L92.3715 73.2808L92.3715 73.2808L92.3715 73.2808L92.3715 73.2808L92.3715 73.2808L92.3715 73.2808L92.3715 73.2808L92.3715 73.2808L92.3715 73.2808L92.3715 73.2807L92.3715 73.2807L92.3715 73.2807L92.3715 73.2807L92.3715 73.2807L92.3715 73.2807L92.3715 73.2807L92.3715 73.2807L92.3715 73.2807L92.3715 73.2807L92.3715 73.2807L92.3715 73.2807L92.3715 73.2807L92.3715 73.2807L92.3715 73.2807L92.3715 73.2807L92.3715 73.2807L92.3715 73.2807L92.3715 73.2807L92.3715 73.2807L92.3715 73.2807L92.3715 73.2807L92.3715 73.2807L92.3715 73.2807L92.3716 73.2807L92.3716 73.2807L92.3716 73.2807L92.3716 73.2807L92.3716 73.2807L92.3716 73.2807L92.3716 73.2807L92.3716 73.2807L92.3716 73.2807L92.3716 73.2807L92.3716 73.2807L92.3716 73.2807L92.3716 73.2807L92.3716 73.2807L92.3716 73.2807L92.3716 73.2807L92.3716 73.2807L92.3716 73.2807L92.3716 73.2807L92.3716 73.2807L92.3716 73.2807L92.3716 73.2807L92.3716 73.2807L92.3716 73.2807L92.3716 73.2807L92.3716 73.2807L92.3716 73.2807L92.3716 73.2807L92.3716 73.2807L92.3716 73.2807L92.3716 73.2807L92.3716 73.2807L92.3716 73.2807L92.3716 73.2807L92.3716 73.2807L92.3716 73.2807L92.3716 73.2807L92.3716 73.2807L92.3716 73.2807L92.3716 73.2807L92.3716 73.2807L92.3716 73.2807L92.3716 73.2807L92.3717 73.2806L92.3717 73.2806L92.3717 73.2806L92.3717 73.2806L92.3717 73.2806L92.3717 73.2806L92.3717 73.2806L92.3717 73.2806L92.3717 73.2806L92.3717 73.2806L92.3717 73.2806L92.3717 73.2806L92.3717 73.2806L92.3717 73.2806L92.3717 73.2806L92.3717 73.2806L92.3717 73.2806L92.3717 73.2806L92.3717 73.2806L92.3717 73.2806L92.3717 73.2806L92.3717 73.2806L92.3717 73.2806L92.3717 73.2806L92.3717 73.2806L92.3717 73.2806L92.3717 73.2806L92.3717 73.2806L92.3717 73.2806L92.3717 73.2806L92.3717 73.2806L92.3717 73.2806L92.3717 73.2806L92.3717 73.2806L92.3717 73.2806L92.3717 73.2806L92.3717 73.2806L92.3717 73.2806L92.3717 73.2806L92.3717 73.2806L92.3717 73.2806L92.3717 73.2806L92.3717 73.2806L92.3717 73.2806L92.3718 73.2806L92.3718 73.2806L92.3718 73.2806L92.3718 73.2806L92.3718 73.2806L92.3718 73.2806L92.3718 73.2806L92.3718 73.2806L92.3718 73.2806L92.3718 73.2806L92.3718 73.2806L92.3718 73.2806L92.3718 73.2806L92.3718 73.2806L92.3718 73.2806L92.3718 73.2806L92.3718 73.2806L92.3718 73.2806L92.3718 73.2806L92.3718 73.2806L92.3718 73.2806L92.3718 73.2806L92.3718 73.2806L92.3718 73.2806L92.3718 73.2806L92.3718 73.2806L92.3718 73.2805L92.3718 73.2805L92.3718 73.2805L92.3718 73.2805L92.3718 73.2805L92.3718 73.2805L92.3718 73.2805L92.3718 73.2805L92.3718 73.2805L92.3718 73.2805L92.3718 73.2805L92.3718 73.2805L92.3718 73.2805L92.3718 73.2805L92.3718 73.2805L92.3718 73.2805L92.3718 73.2805L92.3718 73.2805L92.3718 73.2805L92.3719 73.2805L92.3719 73.2805L92.3719 73.2805L92.3719 73.2805L92.3719 73.2805L92.3719 73.2805L92.3719 73.2805L92.3719 73.2805L92.3719 73.2805L92.3719 73.2805L92.3719 73.2805L92.3719 73.2805L92.3719 73.2805L92.3719 73.2805L92.3719 73.2805L92.3719 73.2805L92.3719 73.2805L92.3719 73.2805L92.3719 73.2805L92.3719 73.2805L92.3719 73.2805L92.3719 73.2805L92.3719 73.2805L92.3719 73.2805L92.3719 73.2805L92.3719 73.2805L92.3719 73.2805L92.3719 73.2805L92.3719 73.2805L92.3719 73.2805L92.3719 73.2805L92.3719 73.2805L92.3719 73.2805L92.3719 73.2805L92.3719 73.2805L92.3719 73.2805L92.3719 73.2805L92.3719 73.2805L92.3719 73.2805L92.3719 73.2805L92.3719 73.2805L92.3719 73.2805L92.3719 73.2805L92.3719 73.2805L92.3719 73.2805L92.372 73.2805L92.372 73.2805L92.372 73.2805L92.372 73.2805L92.372 73.2805L92.372 73.2805L92.372 73.2804L92.372 73.2804L92.372 73.2804L92.372 73.2804L92.372 73.2804L92.372 73.2804L92.372 73.2804L92.372 73.2804L92.372 73.2804L92.372 73.2804L92.372 73.2804L92.372 73.2804L92.372 73.2804L92.372 73.2804L92.372 73.2804L92.372 73.2804L92.372 73.2804L92.372 73.2804L92.372 73.2804L92.372 73.2804L92.372 73.2804L92.372 73.2804L92.372 73.2804L92.372 73.2804L92.372 73.2804L92.372 73.2804L92.372 73.2804L92.372 73.2804L92.372 73.2804L92.372 73.2804L92.372 73.2804L92.372 73.2804L92.372 73.2804L92.372 73.2804L92.372 73.2804L92.372 73.2804L92.372 73.2804L92.3721 73.2804L92.3721 73.2804L92.3721 73.2804L92.3721 73.2804L92.3721 73.2804L92.3721 73.2804L92.3721 73.2804L92.3721 73.2804L92.3721 73.2804L92.3721 73.2804L92.3721 73.2804L92.3721 73.2804L92.3721 73.2804L92.3721 73.2804L92.3721 73.2804L92.3721 73.2804L92.3721 73.2804L92.3721 73.2804L92.3721 73.2804L92.3721 73.2804L92.3721 73.2804L92.3721 73.2804L92.3721 73.2804L92.3721 73.2804L92.3721 73.2804L92.3721 73.2804L92.3721 73.2804L92.3721 73.2804L92.3721 73.2804L92.3721 73.2804L92.3721 73.2803L92.3721 73.2803L92.3721 73.2803L92.3721 73.2803L92.3721 73.2803L92.3721 73.2803L92.3721 73.2803L92.3721 73.2803L92.3721 73.2803L92.3721 73.2803L92.3721 73.2803L92.3721 73.2803L92.3722 73.2803L92.3722 73.2803L92.3722 73.2803L92.3722 73.2803L92.3722 73.2803L92.3722 73.2803L92.3722 73.2803L92.3722 73.2803L92.3722 73.2803L92.3722 73.2803L92.3722 73.2803L92.3722 73.2803L92.3722 73.2803L92.3722 73.2803L92.3722 73.2803L92.3722 73.2803L92.3722 73.2803L92.3722 73.2803L92.3722 73.2803L92.3722 73.2803L92.3722 73.2803L92.3722 73.2803L92.3722 73.2803L92.3722 73.2803L92.3722 73.2803L92.3722 73.2803M92.3722 73.2803L92.3722 73.2803L92.3722 73.2803L92.3722 73.2803L92.3722 73.2803L92.3722 73.2803L92.3722 73.2803L92.3722 73.2803L92.3722 73.2803L92.3722 73.2803L92.3722 73.2803L92.3722 73.2803L92.3722 73.2803L92.3722 73.2803L92.3723 73.2803L92.3723 73.2803L92.3723 73.2803L92.3723 73.2803L92.3723 73.2803L92.3723 73.2803L92.3723 73.2803L92.3723 73.2803L92.3723 73.2803L92.3723 73.2803L92.3723 73.2803L92.3723 73.2803L92.3723 73.2802L92.3723 73.2802L92.3723 73.2802L92.3723 73.2802L92.3723 73.2802L92.3723 73.2802L92.3723 73.2802L92.3723 73.2802L92.3723 73.2802L92.3723 73.2802L92.3723 73.2802L92.3723 73.2802L92.3723 73.2802L92.3723 73.2802L92.3723 73.2802L92.3723 73.2802L92.3723 73.2802L92.3723 73.2802L92.3723 73.2802L92.3723 73.2802L92.3723 73.2802L92.3723 73.2802L92.3723 73.2802L92.3723 73.2802L92.3723 73.2802L92.3724 73.2802L92.3724 73.2802L92.3724 73.2802L92.3724 73.2802L92.3724 73.2802L92.3724 73.2802L92.3724 73.2802L92.3724 73.2802L92.3724 73.2802L92.3724 73.2802L92.3724 73.2802L92.3724 73.2802L92.3724 73.2802L92.3724 73.2802L92.3724 73.2802L92.3724 73.2802L92.3724 73.2802L92.3724 73.2802L92.3724 73.2802L92.3724 73.2802L92.3724 73.2802L92.3724 73.2802L92.3724 73.2802L92.3724 73.2802L92.3724 73.2802L92.3724 73.2802L92.3724 73.2802L92.3724 73.2802L92.3724 73.2802L92.3724 73.2802L92.3724 73.2802L92.3724 73.2801L92.3724 73.2801L92.1346 72.8735M92.3722 73.2803C92.3722 73.2803 92.3721 73.2804 92.372 73.2804L92.1346 72.8735" stroke="black" stroke-opacity="0.2"/>
<path d="M87.669 75.6468C87.0708 76.0266 86.8323 76.7548 87.1361 77.2743L87.6287 78.1166C87.9323 78.6359 88.6636 78.7496 89.2619 78.3706C89.8603 77.9917 90.0992 77.2635 89.7956 76.7442L89.303 75.9019C89 75.3821 88.269 75.2676 87.6703 75.646L87.669 75.6468ZM87.669 75.6468L87.9068 76.0534L87.9068 76.0534L87.9068 76.0534L87.9068 76.0534L87.9068 76.0534L87.9068 76.0534L87.9068 76.0534L87.9068 76.0534L87.9068 76.0534L87.9068 76.0534L87.9068 76.0534L87.9068 76.0534L87.9068 76.0534L87.9068 76.0534L87.9068 76.0534L87.9068 76.0534L87.9068 76.0534L87.9068 76.0534L87.9068 76.0534L87.9069 76.0534L87.9069 76.0534L87.9069 76.0534L87.9069 76.0534L87.9069 76.0534L87.9069 76.0534L87.9069 76.0534L87.9069 76.0534L87.9069 76.0534L87.9069 76.0534L87.9069 76.0534L87.9069 76.0534L87.9069 76.0534L87.9069 76.0534L87.9069 76.0534L87.9069 76.0534L87.9069 76.0534L87.9069 76.0534L87.9069 76.0534L87.9069 76.0534L87.9069 76.0534L87.9069 76.0534L87.9069 76.0534L87.9069 76.0534L87.9069 76.0534L87.9069 76.0534L87.9069 76.0534L87.9069 76.0534L87.9069 76.0534L87.9069 76.0534L87.9069 76.0534L87.9069 76.0534L87.9069 76.0534L87.9069 76.0534L87.9069 76.0534L87.9069 76.0534L87.9069 76.0534L87.9069 76.0534L87.9069 76.0534L87.9069 76.0533L87.9069 76.0533L87.9069 76.0533L87.9069 76.0533L87.9069 76.0533L87.9069 76.0533L87.9069 76.0533L87.9069 76.0533L87.9069 76.0533L87.9069 76.0533L87.9069 76.0533L87.9069 76.0533L87.9069 76.0533L87.9069 76.0533L87.9069 76.0533L87.9069 76.0533L87.9069 76.0533L87.9069 76.0533L87.907 76.0533L87.907 76.0533L87.907 76.0533L87.907 76.0533L87.907 76.0533L87.907 76.0533L87.907 76.0533L87.907 76.0533L87.907 76.0533L87.907 76.0533L87.907 76.0533L87.907 76.0533L87.907 76.0533L87.907 76.0533L87.907 76.0533L87.907 76.0533L87.907 76.0533L87.907 76.0533L87.907 76.0533L87.907 76.0533L87.907 76.0533L87.907 76.0533L87.907 76.0533L87.907 76.0533L87.907 76.0533L87.907 76.0533L87.907 76.0533L87.907 76.0533L87.907 76.0533L87.907 76.0533L87.907 76.0533L87.907 76.0533L87.907 76.0533L87.907 76.0533L87.907 76.0533L87.907 76.0533L87.907 76.0533L87.907 76.0533L87.907 76.0533L87.907 76.0533L87.907 76.0533L87.907 76.0533L87.907 76.0533L87.907 76.0533L87.907 76.0533L87.907 76.0533L87.907 76.0533L87.907 76.0533L87.907 76.0533L87.907 76.0533L87.9071 76.0533M87.669 75.6468L87.9072 76.0531C87.9072 76.0532 87.9071 76.0532 87.9071 76.0533M87.9071 76.0533C87.4539 76.3411 87.3924 76.7991 87.5259 77.0274L88.0185 77.8697C88.1518 78.0976 88.5709 78.2511 89.0241 77.964C89.4774 77.6769 89.539 77.219 89.4057 76.9911L88.9131 76.1488L88.9127 76.1482C88.7799 75.9203 88.3614 75.7663 87.9079 76.0528M87.9071 76.0533L87.9071 76.0533L87.9071 76.0533L87.9071 76.0533L87.9071 76.0533L87.9071 76.0533L87.9071 76.0533L87.9071 76.0533L87.9071 76.0533L87.9071 76.0533L87.9071 76.0533L87.9071 76.0532L87.9071 76.0532L87.9071 76.0532L87.9071 76.0532L87.9071 76.0532L87.9071 76.0532L87.9071 76.0532L87.9071 76.0532L87.9071 76.0532L87.9071 76.0532L87.9071 76.0532L87.9071 76.0532L87.9071 76.0532L87.9071 76.0532L87.9071 76.0532L87.9071 76.0532L87.9071 76.0532L87.9071 76.0532L87.9071 76.0532L87.9071 76.0532L87.9071 76.0532L87.9071 76.0532L87.9071 76.0532L87.9071 76.0532L87.9071 76.0532L87.9071 76.0532L87.9071 76.0532L87.9071 76.0532L87.9071 76.0532L87.9071 76.0532L87.9071 76.0532L87.9071 76.0532L87.9071 76.0532L87.9071 76.0532L87.9072 76.0532L87.9072 76.0532L87.9072 76.0532L87.9072 76.0532L87.9072 76.0532L87.9072 76.0532L87.9072 76.0532L87.9072 76.0532L87.9072 76.0532L87.9072 76.0532L87.9072 76.0532L87.9072 76.0532L87.9072 76.0532L87.9072 76.0532L87.9072 76.0532L87.9072 76.0532L87.9072 76.0532L87.9072 76.0532L87.9072 76.0532L87.9072 76.0532L87.9072 76.0532L87.9072 76.0532L87.9072 76.0532L87.9072 76.0532L87.9072 76.0532L87.9072 76.0532L87.9072 76.0532L87.9072 76.0532L87.9072 76.0532L87.9072 76.0532L87.9072 76.0532L87.9072 76.0532L87.9072 76.0532L87.9072 76.0532L87.9072 76.0532L87.9072 76.0531L87.9072 76.0531L87.9072 76.0531L87.9072 76.0531L87.9072 76.0531L87.9072 76.0531L87.9072 76.0531L87.9072 76.0531L87.9073 76.0531L87.9073 76.0531L87.9073 76.0531L87.9073 76.0531L87.9073 76.0531L87.9073 76.0531L87.9073 76.0531L87.9073 76.0531L87.9073 76.0531L87.9073 76.0531L87.9073 76.0531L87.9073 76.0531L87.9073 76.0531L87.9073 76.0531L87.9073 76.0531L87.9073 76.0531L87.9073 76.0531L87.9073 76.0531L87.9073 76.0531L87.9073 76.0531L87.9073 76.0531L87.9073 76.0531L87.9073 76.0531L87.9073 76.0531L87.9073 76.0531L87.9073 76.0531L87.9073 76.0531L87.9073 76.0531L87.9073 76.0531L87.9073 76.0531L87.9073 76.0531L87.9073 76.0531L87.9073 76.0531L87.9073 76.0531L87.9073 76.0531L87.9073 76.0531L87.9073 76.0531L87.9073 76.0531L87.9073 76.0531L87.9074 76.0531L87.9074 76.0531L87.9074 76.0531L87.9074 76.0531L87.9074 76.0531L87.9074 76.0531L87.9074 76.0531L87.9074 76.0531L87.9074 76.0531L87.9074 76.0531L87.9074 76.0531L87.9074 76.0531L87.9074 76.0531L87.9074 76.0531L87.9074 76.0531L87.9074 76.0531L87.9074 76.053L87.9074 76.053L87.9074 76.053L87.9074 76.053L87.9074 76.053L87.9074 76.053L87.9074 76.053L87.9074 76.053L87.9074 76.053L87.9074 76.053L87.9074 76.053L87.9074 76.053L87.9074 76.053L87.9074 76.053L87.9074 76.053L87.9074 76.053L87.9074 76.053L87.9074 76.053L87.9074 76.053L87.9074 76.053L87.9074 76.053L87.9074 76.053L87.9075 76.053L87.9075 76.053L87.9075 76.053L87.9075 76.053L87.9075 76.053L87.9075 76.053L87.9075 76.053L87.9075 76.053L87.9075 76.053L87.9075 76.053L87.9075 76.053L87.9075 76.053L87.9075 76.053L87.9075 76.053L87.9075 76.053L87.9075 76.053L87.9075 76.053L87.9075 76.053L87.9075 76.053L87.9075 76.053L87.9075 76.053L87.9075 76.053L87.9075 76.053L87.9075 76.053L87.9075 76.053L87.9075 76.053L87.9075 76.053L87.9075 76.053L87.9075 76.053L87.9075 76.053L87.9075 76.053L87.9075 76.053L87.9075 76.053L87.9075 76.053L87.9075 76.053L87.9075 76.053L87.9075 76.0529L87.9076 76.0529L87.9076 76.0529L87.9076 76.0529L87.9076 76.0529L87.9076 76.0529L87.9076 76.0529L87.9076 76.0529L87.9076 76.0529L87.9076 76.0529L87.9076 76.0529L87.9076 76.0529L87.9076 76.0529L87.9076 76.0529L87.9076 76.0529L87.9076 76.0529L87.9076 76.0529L87.9076 76.0529L87.9076 76.0529L87.9076 76.0529L87.9076 76.0529L87.9076 76.0529L87.9076 76.0529L87.9076 76.0529L87.9076 76.0529L87.9076 76.0529L87.9076 76.0529L87.9076 76.0529L87.9076 76.0529L87.9076 76.0529L87.9076 76.0529L87.9076 76.0529L87.9076 76.0529L87.9076 76.0529L87.9076 76.0529L87.9076 76.0529L87.9076 76.0529L87.9077 76.0529L87.9077 76.0529L87.9077 76.0529L87.9077 76.0529L87.9077 76.0529L87.9077 76.0529L87.9077 76.0529L87.9077 76.0529L87.9077 76.0529L87.9077 76.0529L87.9077 76.0529L87.9077 76.0529L87.9077 76.0529L87.9077 76.0529L87.9077 76.0529L87.9077 76.0529L87.9077 76.0529L87.9077 76.0529L87.9077 76.0529L87.9077 76.0528L87.9077 76.0528L87.9077 76.0528L87.9077 76.0528L87.9077 76.0528L87.9077 76.0528L87.9077 76.0528L87.9077 76.0528L87.9077 76.0528L87.9077 76.0528L87.9077 76.0528L87.9077 76.0528L87.9077 76.0528L87.9077 76.0528L87.9077 76.0528L87.9077 76.0528L87.9078 76.0528L87.9078 76.0528L87.9078 76.0528L87.9078 76.0528L87.9078 76.0528L87.9078 76.0528L87.9078 76.0528L87.9078 76.0528L87.9078 76.0528L87.9078 76.0528L87.9078 76.0528L87.9078 76.0528L87.9078 76.0528L87.9078 76.0528L87.9078 76.0528L87.9078 76.0528L87.9078 76.0528L87.9078 76.0528L87.9078 76.0528L87.9078 76.0528L87.9078 76.0528L87.9078 76.0528L87.9078 76.0528L87.9078 76.0528L87.9078 76.0528L87.9078 76.0528L87.9078 76.0528L87.9078 76.0528L87.9078 76.0528L87.9078 76.0528L87.9078 76.0528L87.9078 76.0528L87.9078 76.0528L87.9078 76.0528L87.9079 76.0528L87.9079 76.0528L87.9079 76.0528M87.9079 76.0528L87.9079 76.0528L87.9079 76.0528L87.9079 76.0528L87.9079 76.0527L87.9079 76.0527L87.9079 76.0527L87.9079 76.0527L87.9079 76.0527L87.9079 76.0527L87.9079 76.0527L87.9079 76.0527L87.9079 76.0527L87.9079 76.0527L87.9079 76.0527L87.9079 76.0527L87.9079 76.0527L87.9079 76.0527L87.9079 76.0527L87.9079 76.0527L87.9079 76.0527L87.9079 76.0527L87.9079 76.0527L87.9079 76.0527L87.9079 76.0527L87.9079 76.0527L87.9079 76.0527L87.9079 76.0527L87.9079 76.0527L87.9079 76.0527L87.9079 76.0527L87.9079 76.0527L87.9079 76.0527L87.908 76.0527L87.908 76.0527L87.908 76.0527L87.908 76.0527L87.908 76.0527L87.908 76.0527L87.908 76.0527L87.908 76.0527L87.908 76.0527L87.908 76.0527L87.908 76.0527L87.908 76.0527L87.908 76.0527L87.908 76.0527L87.908 76.0527L87.908 76.0527L87.908 76.0527L87.908 76.0527L87.908 76.0527L87.908 76.0527L87.908 76.0527L87.908 76.0527L87.908 76.0527L87.908 76.0527L87.908 76.0526L87.908 76.0526L87.908 76.0526L87.908 76.0526L87.908 76.0526L87.908 76.0526L87.908 76.0526L87.908 76.0526L87.908 76.0526L87.908 76.0526L87.9081 76.0526L87.9081 76.0526L87.9081 76.0526L87.9081 76.0526L87.9081 76.0526L87.9081 76.0526L87.9081 76.0526L87.9081 76.0526L87.9081 76.0526L87.9081 76.0526L87.9081 76.0526L87.9081 76.0526L87.6703 75.646L87.9077 76.0529C87.9077 76.0528 87.9078 76.0528 87.9079 76.0528Z" fill="#3A556A"/>
<path d="M87.669 75.6468C87.0708 76.0266 86.8323 76.7548 87.1361 77.2743L87.6287 78.1166C87.9323 78.6359 88.6636 78.7496 89.2619 78.3706C89.8603 77.9917 90.0992 77.2635 89.7956 76.7442L89.303 75.9019C89 75.3821 88.269 75.2676 87.6703 75.646L87.669 75.6468ZM87.669 75.6468L87.9068 76.0534L87.9068 76.0534L87.9068 76.0534L87.9068 76.0534L87.9068 76.0534L87.9068 76.0534L87.9068 76.0534L87.9068 76.0534L87.9068 76.0534L87.9068 76.0534L87.9068 76.0534L87.9068 76.0534L87.9068 76.0534L87.9068 76.0534L87.9068 76.0534L87.9068 76.0534L87.9068 76.0534L87.9068 76.0534L87.9068 76.0534L87.9069 76.0534L87.9069 76.0534L87.9069 76.0534L87.9069 76.0534L87.9069 76.0534L87.9069 76.0534L87.9069 76.0534L87.9069 76.0534L87.9069 76.0534L87.9069 76.0534L87.9069 76.0534L87.9069 76.0534L87.9069 76.0534L87.9069 76.0534L87.9069 76.0534L87.9069 76.0534L87.9069 76.0534L87.9069 76.0534L87.9069 76.0534L87.9069 76.0534L87.9069 76.0534L87.9069 76.0534L87.9069 76.0534L87.9069 76.0534L87.9069 76.0534L87.9069 76.0534L87.9069 76.0534L87.9069 76.0534L87.9069 76.0534L87.9069 76.0534L87.9069 76.0534L87.9069 76.0534L87.9069 76.0534L87.9069 76.0534L87.9069 76.0534L87.9069 76.0534L87.9069 76.0534L87.9069 76.0534L87.9069 76.0534L87.9069 76.0533L87.9069 76.0533L87.9069 76.0533L87.9069 76.0533L87.9069 76.0533L87.9069 76.0533L87.9069 76.0533L87.9069 76.0533L87.9069 76.0533L87.9069 76.0533L87.9069 76.0533L87.9069 76.0533L87.9069 76.0533L87.9069 76.0533L87.9069 76.0533L87.9069 76.0533L87.9069 76.0533L87.9069 76.0533L87.907 76.0533L87.907 76.0533L87.907 76.0533L87.907 76.0533L87.907 76.0533L87.907 76.0533L87.907 76.0533L87.907 76.0533L87.907 76.0533L87.907 76.0533L87.907 76.0533L87.907 76.0533L87.907 76.0533L87.907 76.0533L87.907 76.0533L87.907 76.0533L87.907 76.0533L87.907 76.0533L87.907 76.0533L87.907 76.0533L87.907 76.0533L87.907 76.0533L87.907 76.0533L87.907 76.0533L87.907 76.0533L87.907 76.0533L87.907 76.0533L87.907 76.0533L87.907 76.0533L87.907 76.0533L87.907 76.0533L87.907 76.0533L87.907 76.0533L87.907 76.0533L87.907 76.0533L87.907 76.0533L87.907 76.0533L87.907 76.0533L87.907 76.0533L87.907 76.0533L87.907 76.0533L87.907 76.0533L87.907 76.0533L87.907 76.0533L87.907 76.0533L87.907 76.0533L87.907 76.0533L87.907 76.0533L87.907 76.0533L87.907 76.0533L87.9071 76.0533M87.669 75.6468L87.9072 76.0531C87.9072 76.0532 87.9071 76.0532 87.9071 76.0533M87.9071 76.0533C87.4539 76.3411 87.3924 76.7991 87.5259 77.0274L88.0185 77.8697C88.1518 78.0976 88.5709 78.2511 89.0241 77.964C89.4774 77.6769 89.539 77.219 89.4057 76.9911L88.9131 76.1488L88.9127 76.1482C88.7799 75.9203 88.3614 75.7663 87.9079 76.0528M87.9071 76.0533L87.9071 76.0533L87.9071 76.0533L87.9071 76.0533L87.9071 76.0533L87.9071 76.0533L87.9071 76.0533L87.9071 76.0533L87.9071 76.0533L87.9071 76.0533L87.9071 76.0533L87.9071 76.0532L87.9071 76.0532L87.9071 76.0532L87.9071 76.0532L87.9071 76.0532L87.9071 76.0532L87.9071 76.0532L87.9071 76.0532L87.9071 76.0532L87.9071 76.0532L87.9071 76.0532L87.9071 76.0532L87.9071 76.0532L87.9071 76.0532L87.9071 76.0532L87.9071 76.0532L87.9071 76.0532L87.9071 76.0532L87.9071 76.0532L87.9071 76.0532L87.9071 76.0532L87.9071 76.0532L87.9071 76.0532L87.9071 76.0532L87.9071 76.0532L87.9071 76.0532L87.9071 76.0532L87.9071 76.0532L87.9071 76.0532L87.9071 76.0532L87.9071 76.0532L87.9071 76.0532L87.9071 76.0532L87.9071 76.0532L87.9072 76.0532L87.9072 76.0532L87.9072 76.0532L87.9072 76.0532L87.9072 76.0532L87.9072 76.0532L87.9072 76.0532L87.9072 76.0532L87.9072 76.0532L87.9072 76.0532L87.9072 76.0532L87.9072 76.0532L87.9072 76.0532L87.9072 76.0532L87.9072 76.0532L87.9072 76.0532L87.9072 76.0532L87.9072 76.0532L87.9072 76.0532L87.9072 76.0532L87.9072 76.0532L87.9072 76.0532L87.9072 76.0532L87.9072 76.0532L87.9072 76.0532L87.9072 76.0532L87.9072 76.0532L87.9072 76.0532L87.9072 76.0532L87.9072 76.0532L87.9072 76.0532L87.9072 76.0532L87.9072 76.0532L87.9072 76.0532L87.9072 76.0532L87.9072 76.0531L87.9072 76.0531L87.9072 76.0531L87.9072 76.0531L87.9072 76.0531L87.9072 76.0531L87.9072 76.0531L87.9072 76.0531L87.9073 76.0531L87.9073 76.0531L87.9073 76.0531L87.9073 76.0531L87.9073 76.0531L87.9073 76.0531L87.9073 76.0531L87.9073 76.0531L87.9073 76.0531L87.9073 76.0531L87.9073 76.0531L87.9073 76.0531L87.9073 76.0531L87.9073 76.0531L87.9073 76.0531L87.9073 76.0531L87.9073 76.0531L87.9073 76.0531L87.9073 76.0531L87.9073 76.0531L87.9073 76.0531L87.9073 76.0531L87.9073 76.0531L87.9073 76.0531L87.9073 76.0531L87.9073 76.0531L87.9073 76.0531L87.9073 76.0531L87.9073 76.0531L87.9073 76.0531L87.9073 76.0531L87.9073 76.0531L87.9073 76.0531L87.9073 76.0531L87.9073 76.0531L87.9073 76.0531L87.9073 76.0531L87.9073 76.0531L87.9073 76.0531L87.9074 76.0531L87.9074 76.0531L87.9074 76.0531L87.9074 76.0531L87.9074 76.0531L87.9074 76.0531L87.9074 76.0531L87.9074 76.0531L87.9074 76.0531L87.9074 76.0531L87.9074 76.0531L87.9074 76.0531L87.9074 76.0531L87.9074 76.0531L87.9074 76.0531L87.9074 76.0531L87.9074 76.053L87.9074 76.053L87.9074 76.053L87.9074 76.053L87.9074 76.053L87.9074 76.053L87.9074 76.053L87.9074 76.053L87.9074 76.053L87.9074 76.053L87.9074 76.053L87.9074 76.053L87.9074 76.053L87.9074 76.053L87.9074 76.053L87.9074 76.053L87.9074 76.053L87.9074 76.053L87.9074 76.053L87.9074 76.053L87.9074 76.053L87.9074 76.053L87.9075 76.053L87.9075 76.053L87.9075 76.053L87.9075 76.053L87.9075 76.053L87.9075 76.053L87.9075 76.053L87.9075 76.053L87.9075 76.053L87.9075 76.053L87.9075 76.053L87.9075 76.053L87.9075 76.053L87.9075 76.053L87.9075 76.053L87.9075 76.053L87.9075 76.053L87.9075 76.053L87.9075 76.053L87.9075 76.053L87.9075 76.053L87.9075 76.053L87.9075 76.053L87.9075 76.053L87.9075 76.053L87.9075 76.053L87.9075 76.053L87.9075 76.053L87.9075 76.053L87.9075 76.053L87.9075 76.053L87.9075 76.053L87.9075 76.053L87.9075 76.053L87.9075 76.053L87.9075 76.053L87.9075 76.0529L87.9076 76.0529L87.9076 76.0529L87.9076 76.0529L87.9076 76.0529L87.9076 76.0529L87.9076 76.0529L87.9076 76.0529L87.9076 76.0529L87.9076 76.0529L87.9076 76.0529L87.9076 76.0529L87.9076 76.0529L87.9076 76.0529L87.9076 76.0529L87.9076 76.0529L87.9076 76.0529L87.9076 76.0529L87.9076 76.0529L87.9076 76.0529L87.9076 76.0529L87.9076 76.0529L87.9076 76.0529L87.9076 76.0529L87.9076 76.0529L87.9076 76.0529L87.9076 76.0529L87.9076 76.0529L87.9076 76.0529L87.9076 76.0529L87.9076 76.0529L87.9076 76.0529L87.9076 76.0529L87.9076 76.0529L87.9076 76.0529L87.9076 76.0529L87.9076 76.0529L87.9077 76.0529L87.9077 76.0529L87.9077 76.0529L87.9077 76.0529L87.9077 76.0529L87.9077 76.0529L87.9077 76.0529L87.9077 76.0529L87.9077 76.0529L87.9077 76.0529L87.9077 76.0529L87.9077 76.0529L87.9077 76.0529L87.9077 76.0529L87.9077 76.0529L87.9077 76.0529L87.9077 76.0529L87.9077 76.0529L87.9077 76.0529L87.9077 76.0528L87.9077 76.0528L87.9077 76.0528L87.9077 76.0528L87.9077 76.0528L87.9077 76.0528L87.9077 76.0528L87.9077 76.0528L87.9077 76.0528L87.9077 76.0528L87.9077 76.0528L87.9077 76.0528L87.9077 76.0528L87.9077 76.0528L87.9077 76.0528L87.9077 76.0528L87.9078 76.0528L87.9078 76.0528L87.9078 76.0528L87.9078 76.0528L87.9078 76.0528L87.9078 76.0528L87.9078 76.0528L87.9078 76.0528L87.9078 76.0528L87.9078 76.0528L87.9078 76.0528L87.9078 76.0528L87.9078 76.0528L87.9078 76.0528L87.9078 76.0528L87.9078 76.0528L87.9078 76.0528L87.9078 76.0528L87.9078 76.0528L87.9078 76.0528L87.9078 76.0528L87.9078 76.0528L87.9078 76.0528L87.9078 76.0528L87.9078 76.0528L87.9078 76.0528L87.9078 76.0528L87.9078 76.0528L87.9078 76.0528L87.9078 76.0528L87.9078 76.0528L87.9078 76.0528L87.9078 76.0528L87.9078 76.0528L87.9079 76.0528L87.9079 76.0528L87.9079 76.0528M87.9079 76.0528L87.9079 76.0528L87.9079 76.0528L87.9079 76.0528L87.9079 76.0527L87.9079 76.0527L87.9079 76.0527L87.9079 76.0527L87.9079 76.0527L87.9079 76.0527L87.9079 76.0527L87.9079 76.0527L87.9079 76.0527L87.9079 76.0527L87.9079 76.0527L87.9079 76.0527L87.9079 76.0527L87.9079 76.0527L87.9079 76.0527L87.9079 76.0527L87.9079 76.0527L87.9079 76.0527L87.9079 76.0527L87.9079 76.0527L87.9079 76.0527L87.9079 76.0527L87.9079 76.0527L87.9079 76.0527L87.9079 76.0527L87.9079 76.0527L87.9079 76.0527L87.9079 76.0527L87.9079 76.0527L87.908 76.0527L87.908 76.0527L87.908 76.0527L87.908 76.0527L87.908 76.0527L87.908 76.0527L87.908 76.0527L87.908 76.0527L87.908 76.0527L87.908 76.0527L87.908 76.0527L87.908 76.0527L87.908 76.0527L87.908 76.0527L87.908 76.0527L87.908 76.0527L87.908 76.0527L87.908 76.0527L87.908 76.0527L87.908 76.0527L87.908 76.0527L87.908 76.0527L87.908 76.0527L87.908 76.0527L87.908 76.0526L87.908 76.0526L87.908 76.0526L87.908 76.0526L87.908 76.0526L87.908 76.0526L87.908 76.0526L87.908 76.0526L87.908 76.0526L87.908 76.0526L87.9081 76.0526L87.9081 76.0526L87.9081 76.0526L87.9081 76.0526L87.9081 76.0526L87.9081 76.0526L87.9081 76.0526L87.9081 76.0526L87.9081 76.0526L87.9081 76.0526L87.9081 76.0526L87.9081 76.0526L87.6703 75.646L87.9077 76.0529C87.9077 76.0528 87.9078 76.0528 87.9079 76.0528Z" stroke="black"/>
<path d="M87.669 75.6468C87.0708 76.0266 86.8323 76.7548 87.1361 77.2743L87.6287 78.1166C87.9323 78.6359 88.6636 78.7496 89.2619 78.3706C89.8603 77.9917 90.0992 77.2635 89.7956 76.7442L89.303 75.9019C89 75.3821 88.269 75.2676 87.6703 75.646L87.669 75.6468ZM87.669 75.6468L87.9068 76.0534L87.9068 76.0534L87.9068 76.0534L87.9068 76.0534L87.9068 76.0534L87.9068 76.0534L87.9068 76.0534L87.9068 76.0534L87.9068 76.0534L87.9068 76.0534L87.9068 76.0534L87.9068 76.0534L87.9068 76.0534L87.9068 76.0534L87.9068 76.0534L87.9068 76.0534L87.9068 76.0534L87.9068 76.0534L87.9068 76.0534L87.9069 76.0534L87.9069 76.0534L87.9069 76.0534L87.9069 76.0534L87.9069 76.0534L87.9069 76.0534L87.9069 76.0534L87.9069 76.0534L87.9069 76.0534L87.9069 76.0534L87.9069 76.0534L87.9069 76.0534L87.9069 76.0534L87.9069 76.0534L87.9069 76.0534L87.9069 76.0534L87.9069 76.0534L87.9069 76.0534L87.9069 76.0534L87.9069 76.0534L87.9069 76.0534L87.9069 76.0534L87.9069 76.0534L87.9069 76.0534L87.9069 76.0534L87.9069 76.0534L87.9069 76.0534L87.9069 76.0534L87.9069 76.0534L87.9069 76.0534L87.9069 76.0534L87.9069 76.0534L87.9069 76.0534L87.9069 76.0534L87.9069 76.0534L87.9069 76.0534L87.9069 76.0534L87.9069 76.0534L87.9069 76.0534L87.9069 76.0533L87.9069 76.0533L87.9069 76.0533L87.9069 76.0533L87.9069 76.0533L87.9069 76.0533L87.9069 76.0533L87.9069 76.0533L87.9069 76.0533L87.9069 76.0533L87.9069 76.0533L87.9069 76.0533L87.9069 76.0533L87.9069 76.0533L87.9069 76.0533L87.9069 76.0533L87.9069 76.0533L87.9069 76.0533L87.907 76.0533L87.907 76.0533L87.907 76.0533L87.907 76.0533L87.907 76.0533L87.907 76.0533L87.907 76.0533L87.907 76.0533L87.907 76.0533L87.907 76.0533L87.907 76.0533L87.907 76.0533L87.907 76.0533L87.907 76.0533L87.907 76.0533L87.907 76.0533L87.907 76.0533L87.907 76.0533L87.907 76.0533L87.907 76.0533L87.907 76.0533L87.907 76.0533L87.907 76.0533L87.907 76.0533L87.907 76.0533L87.907 76.0533L87.907 76.0533L87.907 76.0533L87.907 76.0533L87.907 76.0533L87.907 76.0533L87.907 76.0533L87.907 76.0533L87.907 76.0533L87.907 76.0533L87.907 76.0533L87.907 76.0533L87.907 76.0533L87.907 76.0533L87.907 76.0533L87.907 76.0533L87.907 76.0533L87.907 76.0533L87.907 76.0533L87.907 76.0533L87.907 76.0533L87.907 76.0533L87.907 76.0533L87.907 76.0533L87.907 76.0533L87.9071 76.0533M87.669 75.6468L87.9072 76.0531C87.9072 76.0532 87.9071 76.0532 87.9071 76.0533M87.9071 76.0533C87.4539 76.3411 87.3924 76.7991 87.5259 77.0274L88.0185 77.8697C88.1518 78.0976 88.5709 78.2511 89.0241 77.964C89.4774 77.6769 89.539 77.219 89.4057 76.9911L88.9131 76.1488L88.9127 76.1482C88.7799 75.9203 88.3614 75.7663 87.9079 76.0528M87.9071 76.0533L87.9071 76.0533L87.9071 76.0533L87.9071 76.0533L87.9071 76.0533L87.9071 76.0533L87.9071 76.0533L87.9071 76.0533L87.9071 76.0533L87.9071 76.0533L87.9071 76.0533L87.9071 76.0532L87.9071 76.0532L87.9071 76.0532L87.9071 76.0532L87.9071 76.0532L87.9071 76.0532L87.9071 76.0532L87.9071 76.0532L87.9071 76.0532L87.9071 76.0532L87.9071 76.0532L87.9071 76.0532L87.9071 76.0532L87.9071 76.0532L87.9071 76.0532L87.9071 76.0532L87.9071 76.0532L87.9071 76.0532L87.9071 76.0532L87.9071 76.0532L87.9071 76.0532L87.9071 76.0532L87.9071 76.0532L87.9071 76.0532L87.9071 76.0532L87.9071 76.0532L87.9071 76.0532L87.9071 76.0532L87.9071 76.0532L87.9071 76.0532L87.9071 76.0532L87.9071 76.0532L87.9071 76.0532L87.9071 76.0532L87.9072 76.0532L87.9072 76.0532L87.9072 76.0532L87.9072 76.0532L87.9072 76.0532L87.9072 76.0532L87.9072 76.0532L87.9072 76.0532L87.9072 76.0532L87.9072 76.0532L87.9072 76.0532L87.9072 76.0532L87.9072 76.0532L87.9072 76.0532L87.9072 76.0532L87.9072 76.0532L87.9072 76.0532L87.9072 76.0532L87.9072 76.0532L87.9072 76.0532L87.9072 76.0532L87.9072 76.0532L87.9072 76.0532L87.9072 76.0532L87.9072 76.0532L87.9072 76.0532L87.9072 76.0532L87.9072 76.0532L87.9072 76.0532L87.9072 76.0532L87.9072 76.0532L87.9072 76.0532L87.9072 76.0532L87.9072 76.0532L87.9072 76.0532L87.9072 76.0531L87.9072 76.0531L87.9072 76.0531L87.9072 76.0531L87.9072 76.0531L87.9072 76.0531L87.9072 76.0531L87.9072 76.0531L87.9073 76.0531L87.9073 76.0531L87.9073 76.0531L87.9073 76.0531L87.9073 76.0531L87.9073 76.0531L87.9073 76.0531L87.9073 76.0531L87.9073 76.0531L87.9073 76.0531L87.9073 76.0531L87.9073 76.0531L87.9073 76.0531L87.9073 76.0531L87.9073 76.0531L87.9073 76.0531L87.9073 76.0531L87.9073 76.0531L87.9073 76.0531L87.9073 76.0531L87.9073 76.0531L87.9073 76.0531L87.9073 76.0531L87.9073 76.0531L87.9073 76.0531L87.9073 76.0531L87.9073 76.0531L87.9073 76.0531L87.9073 76.0531L87.9073 76.0531L87.9073 76.0531L87.9073 76.0531L87.9073 76.0531L87.9073 76.0531L87.9073 76.0531L87.9073 76.0531L87.9073 76.0531L87.9073 76.0531L87.9073 76.0531L87.9074 76.0531L87.9074 76.0531L87.9074 76.0531L87.9074 76.0531L87.9074 76.0531L87.9074 76.0531L87.9074 76.0531L87.9074 76.0531L87.9074 76.0531L87.9074 76.0531L87.9074 76.0531L87.9074 76.0531L87.9074 76.0531L87.9074 76.0531L87.9074 76.0531L87.9074 76.0531L87.9074 76.053L87.9074 76.053L87.9074 76.053L87.9074 76.053L87.9074 76.053L87.9074 76.053L87.9074 76.053L87.9074 76.053L87.9074 76.053L87.9074 76.053L87.9074 76.053L87.9074 76.053L87.9074 76.053L87.9074 76.053L87.9074 76.053L87.9074 76.053L87.9074 76.053L87.9074 76.053L87.9074 76.053L87.9074 76.053L87.9074 76.053L87.9074 76.053L87.9075 76.053L87.9075 76.053L87.9075 76.053L87.9075 76.053L87.9075 76.053L87.9075 76.053L87.9075 76.053L87.9075 76.053L87.9075 76.053L87.9075 76.053L87.9075 76.053L87.9075 76.053L87.9075 76.053L87.9075 76.053L87.9075 76.053L87.9075 76.053L87.9075 76.053L87.9075 76.053L87.9075 76.053L87.9075 76.053L87.9075 76.053L87.9075 76.053L87.9075 76.053L87.9075 76.053L87.9075 76.053L87.9075 76.053L87.9075 76.053L87.9075 76.053L87.9075 76.053L87.9075 76.053L87.9075 76.053L87.9075 76.053L87.9075 76.053L87.9075 76.053L87.9075 76.053L87.9075 76.053L87.9075 76.0529L87.9076 76.0529L87.9076 76.0529L87.9076 76.0529L87.9076 76.0529L87.9076 76.0529L87.9076 76.0529L87.9076 76.0529L87.9076 76.0529L87.9076 76.0529L87.9076 76.0529L87.9076 76.0529L87.9076 76.0529L87.9076 76.0529L87.9076 76.0529L87.9076 76.0529L87.9076 76.0529L87.9076 76.0529L87.9076 76.0529L87.9076 76.0529L87.9076 76.0529L87.9076 76.0529L87.9076 76.0529L87.9076 76.0529L87.9076 76.0529L87.9076 76.0529L87.9076 76.0529L87.9076 76.0529L87.9076 76.0529L87.9076 76.0529L87.9076 76.0529L87.9076 76.0529L87.9076 76.0529L87.9076 76.0529L87.9076 76.0529L87.9076 76.0529L87.9076 76.0529L87.9077 76.0529L87.9077 76.0529L87.9077 76.0529L87.9077 76.0529L87.9077 76.0529L87.9077 76.0529L87.9077 76.0529L87.9077 76.0529L87.9077 76.0529L87.9077 76.0529L87.9077 76.0529L87.9077 76.0529L87.9077 76.0529L87.9077 76.0529L87.9077 76.0529L87.9077 76.0529L87.9077 76.0529L87.9077 76.0529L87.9077 76.0529L87.9077 76.0528L87.9077 76.0528L87.9077 76.0528L87.9077 76.0528L87.9077 76.0528L87.9077 76.0528L87.9077 76.0528L87.9077 76.0528L87.9077 76.0528L87.9077 76.0528L87.9077 76.0528L87.9077 76.0528L87.9077 76.0528L87.9077 76.0528L87.9077 76.0528L87.9077 76.0528L87.9078 76.0528L87.9078 76.0528L87.9078 76.0528L87.9078 76.0528L87.9078 76.0528L87.9078 76.0528L87.9078 76.0528L87.9078 76.0528L87.9078 76.0528L87.9078 76.0528L87.9078 76.0528L87.9078 76.0528L87.9078 76.0528L87.9078 76.0528L87.9078 76.0528L87.9078 76.0528L87.9078 76.0528L87.9078 76.0528L87.9078 76.0528L87.9078 76.0528L87.9078 76.0528L87.9078 76.0528L87.9078 76.0528L87.9078 76.0528L87.9078 76.0528L87.9078 76.0528L87.9078 76.0528L87.9078 76.0528L87.9078 76.0528L87.9078 76.0528L87.9078 76.0528L87.9078 76.0528L87.9078 76.0528L87.9078 76.0528L87.9079 76.0528L87.9079 76.0528L87.9079 76.0528M87.9079 76.0528L87.9079 76.0528L87.9079 76.0528L87.9079 76.0528L87.9079 76.0527L87.9079 76.0527L87.9079 76.0527L87.9079 76.0527L87.9079 76.0527L87.9079 76.0527L87.9079 76.0527L87.9079 76.0527L87.9079 76.0527L87.9079 76.0527L87.9079 76.0527L87.9079 76.0527L87.9079 76.0527L87.9079 76.0527L87.9079 76.0527L87.9079 76.0527L87.9079 76.0527L87.9079 76.0527L87.9079 76.0527L87.9079 76.0527L87.9079 76.0527L87.9079 76.0527L87.9079 76.0527L87.9079 76.0527L87.9079 76.0527L87.9079 76.0527L87.9079 76.0527L87.9079 76.0527L87.9079 76.0527L87.908 76.0527L87.908 76.0527L87.908 76.0527L87.908 76.0527L87.908 76.0527L87.908 76.0527L87.908 76.0527L87.908 76.0527L87.908 76.0527L87.908 76.0527L87.908 76.0527L87.908 76.0527L87.908 76.0527L87.908 76.0527L87.908 76.0527L87.908 76.0527L87.908 76.0527L87.908 76.0527L87.908 76.0527L87.908 76.0527L87.908 76.0527L87.908 76.0527L87.908 76.0527L87.908 76.0527L87.908 76.0526L87.908 76.0526L87.908 76.0526L87.908 76.0526L87.908 76.0526L87.908 76.0526L87.908 76.0526L87.908 76.0526L87.908 76.0526L87.908 76.0526L87.9081 76.0526L87.9081 76.0526L87.9081 76.0526L87.9081 76.0526L87.9081 76.0526L87.9081 76.0526L87.9081 76.0526L87.9081 76.0526L87.9081 76.0526L87.9081 76.0526L87.9081 76.0526L87.9081 76.0526L87.6703 75.646L87.9077 76.0529C87.9077 76.0528 87.9078 76.0528 87.9079 76.0528Z" stroke="black" stroke-opacity="0.2"/>
<path d="M84.4481 78.9213L84.4482 78.9215L84.9406 79.7635C85.073 79.9912 85.0112 80.4479 84.5596 80.7346C84.1069 81.022 83.6875 80.8694 83.5537 80.6418L83.0613 79.7999C82.9278 79.5716 82.9893 79.1137 83.4423 78.8259C83.8958 78.5393 84.3148 78.6931 84.4481 78.9213Z" fill="#3A556A"/>
<path d="M84.4481 78.9213L84.4482 78.9215L84.9406 79.7635C85.073 79.9912 85.0112 80.4479 84.5596 80.7346C84.1069 81.022 83.6875 80.8694 83.5537 80.6418L83.0613 79.7999C82.9278 79.5716 82.9893 79.1137 83.4423 78.8259C83.8958 78.5393 84.3148 78.6931 84.4481 78.9213Z" stroke="black"/>
<path d="M84.4481 78.9213L84.4482 78.9215L84.9406 79.7635C85.073 79.9912 85.0112 80.4479 84.5596 80.7346C84.1069 81.022 83.6875 80.8694 83.5537 80.6418L83.0613 79.7999C82.9278 79.5716 82.9893 79.1137 83.4423 78.8259C83.8958 78.5393 84.3148 78.6931 84.4481 78.9213Z" stroke="black" stroke-opacity="0.2"/>
<path d="M79.9835 81.6938L79.9836 81.694L80.4759 82.5359C80.6085 82.7636 80.5467 83.2204 80.095 83.5072C79.6423 83.7945 79.2229 83.6419 79.0891 83.4143L78.5967 82.5724C78.4632 82.3441 78.5247 81.8862 78.9777 81.5984C79.4312 81.3118 79.8502 81.4655 79.9835 81.6938Z" fill="#3A556A"/>
<path d="M79.9835 81.6938L79.9836 81.694L80.4759 82.5359C80.6085 82.7636 80.5467 83.2204 80.095 83.5072C79.6423 83.7945 79.2229 83.6419 79.0891 83.4143L78.5967 82.5724C78.4632 82.3441 78.5247 81.8862 78.9777 81.5984C79.4312 81.3118 79.8502 81.4655 79.9835 81.6938Z" stroke="black"/>
<path d="M79.9835 81.6938L79.9836 81.694L80.4759 82.5359C80.6085 82.7636 80.5467 83.2204 80.095 83.5072C79.6423 83.7945 79.2229 83.6419 79.0891 83.4143L78.5967 82.5724C78.4632 82.3441 78.5247 81.8862 78.9777 81.5984C79.4312 81.3118 79.8502 81.4655 79.9835 81.6938Z" stroke="black" stroke-opacity="0.2"/>
<path d="M74.1325 85.3448C73.999 85.1165 74.0604 84.6586 74.5134 84.3708C74.9665 84.0845 75.3858 84.238 75.5193 84.4664L76.0117 85.3084C76.1442 85.5361 76.0824 85.9928 75.6307 86.2795C75.1781 86.5669 74.7586 86.4143 74.6248 86.1867L74.1325 85.3448Z" fill="#3A556A"/>
<path d="M74.1325 85.3448C73.999 85.1165 74.0604 84.6586 74.5134 84.3708C74.9665 84.0845 75.3858 84.238 75.5193 84.4664L76.0117 85.3084C76.1442 85.5361 76.0824 85.9928 75.6307 86.2795C75.1781 86.5669 74.7586 86.4143 74.6248 86.1867L74.1325 85.3448Z" stroke="black"/>
<path d="M74.1325 85.3448C73.999 85.1165 74.0604 84.6586 74.5134 84.3708C74.9665 84.0845 75.3858 84.238 75.5193 84.4664L76.0117 85.3084C76.1442 85.5361 76.0824 85.9928 75.6307 86.2795C75.1781 86.5669 74.7586 86.4143 74.6248 86.1867L74.1325 85.3448Z" stroke="black" stroke-opacity="0.2"/>
<path d="M71.0534 87.2394L71.0535 87.2396L71.5459 88.0815C71.6784 88.3093 71.6166 88.7661 71.1649 89.0528C70.7123 89.3402 70.2928 89.1876 70.159 88.96L69.6667 88.118L69.666 88.117C69.5328 87.8891 69.5943 87.4312 70.0474 87.1442C70.501 86.8574 70.9201 87.0112 71.0534 87.2394Z" fill="#3A556A"/>
<path d="M71.0534 87.2394L71.0535 87.2396L71.5459 88.0815C71.6784 88.3093 71.6166 88.7661 71.1649 89.0528C70.7123 89.3402 70.2928 89.1876 70.159 88.96L69.6667 88.118L69.666 88.117C69.5328 87.8891 69.5943 87.4312 70.0474 87.1442C70.501 86.8574 70.9201 87.0112 71.0534 87.2394Z" stroke="black"/>
<path d="M71.0534 87.2394L71.0535 87.2396L71.5459 88.0815C71.6784 88.3093 71.6166 88.7661 71.1649 89.0528C70.7123 89.3402 70.2928 89.1876 70.159 88.96L69.6667 88.118L69.666 88.117C69.5328 87.8891 69.5943 87.4312 70.0474 87.1442C70.501 86.8574 70.9201 87.0112 71.0534 87.2394Z" stroke="black" stroke-opacity="0.2"/>
<path d="M65.2028 90.8886C65.0695 90.6608 65.131 90.2029 65.5842 89.9159C66.0374 89.6294 66.4567 89.7829 66.5903 90.0113L67.0827 90.8533C67.2152 91.081 67.1533 91.5377 66.7017 91.8244C66.249 92.1118 65.8296 91.9592 65.6958 91.7316L65.2034 90.8897L65.2028 90.8886Z" fill="#3A556A"/>
<path d="M65.2028 90.8886C65.0695 90.6608 65.131 90.2029 65.5842 89.9159C66.0374 89.6294 66.4567 89.7829 66.5903 90.0113L67.0827 90.8533C67.2152 91.081 67.1533 91.5377 66.7017 91.8244C66.249 92.1118 65.8296 91.9592 65.6958 91.7316L65.2034 90.8897L65.2028 90.8886Z" stroke="black"/>
<path d="M65.2028 90.8886C65.0695 90.6608 65.131 90.2029 65.5842 89.9159C66.0374 89.6294 66.4567 89.7829 66.5903 90.0113L67.0827 90.8533C67.2152 91.081 67.1533 91.5377 66.7017 91.8244C66.249 92.1118 65.8296 91.9592 65.6958 91.7316L65.2034 90.8897L65.2028 90.8886Z" stroke="black" stroke-opacity="0.2"/>
</svg>
