<svg width="111" height="110" viewBox="0 0 111 110" fill="none" xmlns="http://www.w3.org/2000/svg">
<path d="M31.8093 47.254C31.8093 57.1951 39.8682 65.254 49.8093 65.254L60.0036 65.254C62.765 65.254 65.0036 63.0154 65.0036 60.254L65.0036 40.1316C65.0036 34.6087 60.5264 30.1316 55.0036 30.1316L36.8093 30.1316C34.0479 30.1316 31.8093 32.3702 31.8093 35.1316L31.8093 47.254Z" fill="#FFF1DA"/>
<path d="M64.0634 62.3449C63.1616 62.5629 62.2833 62.9669 61.4829 63.5313C59.3978 64.9658 58.1847 67.0135 58.7735 68.1045C59.3624 69.1955 61.53 68.9165 63.6151 67.482C64.4262 66.9375 65.1468 66.2417 65.7325 65.4375C66.0042 65.0489 66.053 64.5648 65.857 64.2028L65.0921 62.7855C64.8975 62.4224 64.4938 62.2498 64.0634 62.3449Z" fill="#D5D6DB"/>
<path d="M58.8273 42.9966C58.1734 43.1548 57.5365 43.4478 56.9561 43.8572C55.4445 44.8971 54.5644 46.3818 54.991 47.1723C55.4176 47.9627 56.99 47.7602 58.5014 46.7204C59.0895 46.3254 59.6119 45.8206 60.0367 45.2374C60.2335 44.9558 60.2688 44.605 60.1267 44.3426L59.5729 43.3163C59.4319 43.0532 59.1394 42.9277 58.8273 42.9966Z" fill="#D5D6DB"/>
<path d="M50.3203 43.8069C50.1747 43.7894 50.0195 43.8313 49.8849 43.9241L46.3343 46.3671C46.0373 46.5708 45.9185 46.9631 46.0691 47.2435C46.1036 47.3077 46.1507 47.3626 46.208 47.4049L54.9591 53.9168L66.7984 45.7708L50.3203 43.8069Z" fill="#029BC5"/>
<path d="M87.7478 42.8861L55.5283 64.7854L36.4664 72.9749L26.745 75.0613L25.6755 73.0993L79.3806 37.2983C80.9811 36.2268 82.764 35.5691 84.5491 35.392C85.3308 35.319 86.1028 35.3471 86.8471 35.4752C87.507 35.5832 88.133 35.7916 88.7064 36.0942C89.3463 36.437 90.5643 36.4765 90.9588 37.1595C90.9601 37.1584 91.8909 40.2939 87.7478 42.8861V42.8861Z" fill="#E1E6E9"/>
<path d="M55.9554 61.8877L42.017 85.8785C41.8429 86.2155 41.9463 86.5929 42.2476 86.7214C42.4325 86.8002 42.6589 86.7691 42.849 86.6386L46.3968 84.2086C47.0792 83.741 47.6834 83.1471 48.1721 82.4636L75.2031 48.1518L55.9554 61.8877Z" fill="#029BC5"/>
<path d="M20.7831 61.0867C20.5506 61.0009 20.2739 61.0454 20.0404 61.2061L17.1077 63.2227C16.708 63.4972 16.5488 64.0251 16.7519 64.4019C16.7906 64.4735 16.8408 64.5365 16.9011 64.5885L25.1178 71.6935L33.7569 65.8674L20.7831 61.0867Z" fill="#029BC5"/>
<path d="M27.8719 72.9743L23.4494 79.6616C23.3846 79.7577 23.3999 79.8783 23.4835 79.9309C23.5438 79.9688 23.6261 79.962 23.693 79.9136L26.4337 78.0385C26.455 78.0239 26.4743 78.0057 26.4902 77.9848L32.9522 69.5018L27.8719 72.9743Z" fill="#029BC5"/>
<path d="M86.3183 35.7635C85.5519 35.6306 84.7568 35.6022 83.9516 35.6787C83.1676 36.8621 82.6666 38.1916 82.4983 39.5344C82.486 39.8041 82.6874 39.9983 82.9483 39.968C83.0294 39.9585 83.11 39.9278 83.1826 39.8785L88.2333 36.4062C87.6428 36.0918 86.998 35.8755 86.3183 35.7635Z" fill="#029BC5"/>
<path d="M75.3116 42.1487L78.6092 39.9002L81.6807 45.5406L78.3832 47.7891L75.3116 42.1487Z" fill="#D5D6DB"/>
<path d="M73.2367 44.3795C72.8393 44.6513 72.6805 45.1737 72.8822 45.5462L73.209 46.1497C73.424 46.5127 73.9148 46.5766 74.3054 46.2922C74.677 46.0214 74.8267 45.5292 74.6476 45.1658L74.3208 44.5623C74.1192 44.1901 73.634 44.1082 73.2367 44.3795V44.3795Z" fill="#3A556A"/>
<path d="M70.2728 46.3668C69.8754 46.6385 69.7166 47.1609 69.9183 47.5334L70.2452 48.137C70.4602 48.5 70.951 48.5638 71.3415 48.2795C71.7132 48.0087 71.8628 47.5165 71.6837 47.1531L71.3569 46.5495C71.1552 46.1774 70.67 46.0955 70.2728 46.3668V46.3668Z" fill="#3A556A"/>
<path d="M67.308 48.3547C66.911 48.6268 66.7528 49.1485 66.9544 49.5207L67.2812 50.1242C67.4962 50.4872 67.987 50.5511 68.3775 50.2667C68.7492 49.996 68.8989 49.5038 68.7197 49.1404L68.3929 48.5369C68.1912 48.1643 67.7055 48.0828 67.308 48.3547V48.3547Z" fill="#3A556A"/>
<path d="M64.3442 50.3419C63.9473 50.614 63.789 51.1358 63.9906 51.508L64.3174 52.1115C64.5324 52.4745 65.0232 52.5384 65.4138 52.254C65.7854 51.9832 65.9351 51.491 65.756 51.1276L65.4292 50.5241C65.2273 50.1517 64.7416 50.0701 64.3442 50.3419V50.3419Z" fill="#3A556A"/>
<path d="M61.3807 52.3293C60.9835 52.6015 60.8251 53.1235 61.0268 53.4959L61.3539 54.0997C61.5555 54.4719 62.0409 54.5534 62.4382 54.2817C62.8354 54.0101 62.994 53.4881 62.7924 53.1159L62.4654 52.5121C62.2643 52.1396 61.779 52.0575 61.3815 52.3287C61.3812 52.3289 61.381 52.3291 61.3807 52.3293Z" fill="#3A556A"/>
<path d="M58.4168 54.3165C58.0196 54.5888 57.8613 55.1108 58.063 55.4831L58.39 56.0869C58.5916 56.4591 59.0771 56.5406 59.4743 56.269C59.8716 55.9973 60.0302 55.4754 59.8286 55.1032L59.5015 54.4994C59.3004 54.1268 58.8151 54.0448 58.4176 54.316C58.4173 54.3162 58.417 54.3164 58.4168 54.3165Z" fill="#3A556A"/>
<path d="M55.4528 56.3039C55.0556 56.5761 54.8973 57.0981 55.099 57.4704L55.426 58.0742C55.6281 58.446 56.1138 58.5267 56.5106 58.2547C56.9068 57.9832 57.065 57.4623 56.8644 57.0906L56.5373 56.4868C56.3358 56.1143 55.8504 56.0324 55.4528 56.3039Z" fill="#3A556A"/>
<path d="M52.4888 58.2911C52.0916 58.5634 51.9333 59.0854 52.135 59.4577L52.462 60.0615C52.6641 60.4334 53.1498 60.5141 53.5466 60.2421C53.9428 59.9705 54.101 59.4496 53.9004 59.0779L53.5734 58.4741C53.3718 58.1016 52.8864 58.0197 52.4888 58.2911Z" fill="#3A556A"/>
<path d="M49.5252 60.2783C49.128 60.5506 48.9697 61.0726 49.1714 61.4449L49.4984 62.0487C49.7005 62.4205 50.1862 62.5012 50.583 62.2292C50.9792 61.9577 51.1374 61.4368 50.9368 61.0651L50.6097 60.4613C50.408 60.0889 49.9226 60.007 49.5252 60.2783Z" fill="#3A556A"/>
<path d="M46.5603 62.2662C46.1631 62.5378 46.0045 63.0598 46.2061 63.432L46.2065 63.4328L46.5335 64.0366C46.7356 64.4084 47.2213 64.4891 47.6182 64.2171C48.0143 63.9455 48.1726 63.4247 47.9719 63.0529L47.6449 62.4491C47.4434 62.0767 46.9579 61.9947 46.5603 62.2662Z" fill="#3A556A"/>
<path d="M43.5972 64.2529C43.2 64.5245 43.0414 65.0465 43.243 65.4187L43.2434 65.4195L43.5704 66.0232C43.7725 66.3951 44.2582 66.4758 44.6551 66.2038C45.0512 65.9322 45.2095 65.4114 45.0088 65.0396L44.6818 64.4359C44.4801 64.0635 43.9946 63.9816 43.5972 64.2529Z" fill="#3A556A"/>
</svg>
